<?xml version="1.0" standalone="no"?><!DOCTYPE svg PUBLIC "-//W3C//DTD SVG 1.1//EN" "http://www.w3.org/Graphics/SVG/1.1/DTD/svg11.dtd" ><svg xmlns="http://www.w3.org/2000/svg"><metadata></metadata><defs><font id="DFPYuanW3-GB" horiz-adv-x="1000"><font-face font-family="DFPYuanW3-GB" font-weight="400" font-stretch="normal" units-per-em="1000" panose-1="2 15 3 0 0 0 0 0 0 0" ascent="860" descent="-140" x-height="0" bbox="15 -112 976 833" underline-thickness="50" underline-position="-110" unicode-range="U+0021-ff5e" /><missing-glyph horiz-adv-x="1000" d="M208 607 q0 -25 -3 -84 l-20 -311 q-2 -30 -18 -30 q-17 0 -19 30 l-21 337 q-2 35 -2 58 q0 49 41 49 q42 0 42 -49 ZM223 56 q0 -24 -17 -40 q-16 -16 -39 -16 q-24 0 -41 16 q-16 16 -16 40 q0 23 16 40 q17 16 41 16 q23 0 39 -16 q17 -17 17 -40 Z" /><glyph glyph-name="" unicode="!" d="M208 607 q0 -25 -3 -84 l-20 -311 q-2 -30 -18 -30 q-17 0 -19 30 l-21 337 q-2 35 -2 58 q0 49 41 49 q42 0 42 -49 ZM223 56 q0 -24 -17 -40 q-16 -16 -39 -16 q-24 0 -41 16 q-16 16 -16 40 q0 23 16 40 q17 16 41 16 q23 0 39 -16 q17 -17 17 -40 Z" /><glyph glyph-name="" unicode="*" d="M369 384 q0 -26 -25 -26 q-10 0 -22 9 l-113 86 l16 -137 q2 -17 2 -17 q0 -25 -28 -25 q-27 0 -27 25 q0 0 2 17 l15 137 l-113 -85 q-12 -10 -22 -10 q-24 0 -24 26 q0 17 24 27 l130 54 l-130 56 q-24 10 -24 26 q0 26 24 26 q10 0 22 -9 l113 -88 l-16 156 q-3 25 26 25 q28 0 28 -25 q0 0 -2 -17 l-16 -139 l113 88 q12 9 22 9 q25 0 25 -26 q0 -16 -25 -26 l-129 -56 l129 -54 q25 -11 25 -27 Z" /><glyph glyph-name="" unicode="," d="M159 58 q0 -64 -45 -127 q-31 -43 -45 -43 q-15 0 -15 16 q0 10 21 42 q21 32 21 43 q0 11 -23 28 q-23 17 -23 41 q0 24 15 41 q15 17 39 17 q23 0 39 -18 q16 -17 16 -40 Z" /><glyph glyph-name="" unicode="." d="M160 55 q0 -23 -17 -39 q-16 -17 -38 -17 q-23 0 -40 17 q-16 16 -16 39 q0 23 16 39 q17 16 40 16 q22 0 38 -16 q17 -16 17 -39 Z" /><glyph glyph-name="" unicode="/" d="M253 702 q0 -3 -1 -6 l-180 -747 q-5 -18 -23 -18 q-24 0 -24 22 q0 3 1 7 l180 746 q5 19 23 19 q24 0 24 -23 Z" /><glyph glyph-name="" unicode="0" d="M481 328 q0 -327 -204 -327 q-204 0 -204 327 q0 328 204 328 q204 0 204 -328 ZM428 328 q0 281 -151 281 q-151 0 -151 -281 q0 -280 151 -280 q151 0 151 280 Z" /><glyph glyph-name="" unicode="1" d="M299 29 q0 -29 -28 -29 q-25 0 -25 29 l0 543 q-65 -45 -107 -45 q-25 0 -25 21 q0 16 25 22 q54 12 106 68 q19 19 27 19 q27 0 27 -27 l0 -601 Z" /><glyph glyph-name="" unicode="2" d="M488 39 q0 -25 -31 -25 l-351 0 q-40 0 -40 27 q0 22 50 82 q46 55 120 119 q36 32 108 96 q86 77 86 152 q0 59 -46 91 q-40 28 -102 28 q-66 0 -112 -40 q-42 -37 -52 -92 q-6 -35 -17 -35 q-28 0 -28 30 q0 70 59 128 q59 57 150 57 q85 0 141 -41 q62 -46 62 -126 q0 -88 -103 -175 q-38 -34 -114 -101 q-96 -84 -138 -152 l327 0 q31 0 31 -23 Z" /><glyph glyph-name="" unicode="3" d="M495 180 q0 -84 -74 -135 q-66 -45 -156 -45 q-69 0 -122 32 q-59 35 -79 97 q-5 18 -5 31 q0 31 22 31 q16 0 23 -30 q27 -113 161 -113 q65 0 117 32 q60 37 60 100 q0 70 -54 113 q-45 35 -164 35 q-38 0 -38 24 q0 22 38 24 q208 8 208 123 q0 57 -56 87 q-44 23 -108 23 q-54 0 -94 -30 q-35 -26 -46 -69 q-7 -26 -23 -26 q-24 0 -24 26 q0 15 6 32 q17 52 69 84 q53 31 120 31 q87 0 143 -37 q66 -43 66 -124 q0 -50 -36 -88 q-36 -38 -100 -56 q146 -36 146 -172 Z" /><glyph glyph-name="" unicode="4" d="M504 183 q0 -24 -31 -24 l-72 0 l0 -130 q0 -30 -26 -30 q-23 0 -23 30 l0 130 l-255 0 q-47 0 -47 20 q0 12 10 27 l287 434 q11 16 28 16 q27 0 27 -27 l0 -422 l71 0 q31 0 31 -24 ZM350 206 l0 349 l-231 -349 l231 0 Z" /><glyph glyph-name="" unicode="5" d="M474 232 q0 -100 -55 -165 q-57 -68 -155 -68 q-80 0 -136 53 q-48 45 -48 75 q0 31 24 31 q15 0 24 -19 q40 -91 136 -91 q76 0 118 56 q38 51 38 128 q0 65 -30 109 q-35 52 -99 52 q-57 0 -97 -26 q-32 -21 -68 -72 q-9 -12 -15 -12 q-22 0 -22 46 l0 277 q0 37 30 37 l304 0 q32 0 32 -25 q0 -24 -32 -24 l-264 0 q-17 0 -17 -19 l0 -202 q67 69 149 69 q87 0 137 -63 q46 -57 46 -147 Z" /><glyph glyph-name="" unicode="6" d="M479 230 q0 -94 -52 -159 q-56 -71 -151 -71 q-110 0 -162 103 q-39 81 -39 213 q0 126 24 204 q42 137 186 137 q74 0 116 -34 q21 -18 39 -47 q19 -29 19 -42 q0 -27 -27 -27 q-7 0 -15 15 q-28 49 -49 65 q-28 23 -83 23 q-96 0 -132 -87 q-25 -59 -26 -183 q89 86 168 86 q87 0 137 -55 q47 -53 47 -141 ZM427 230 q0 62 -33 103 q-36 46 -99 46 q-90 0 -168 -110 q0 -89 32 -149 q40 -73 117 -73 q75 0 115 56 q36 49 36 127 Z" /><glyph glyph-name="" unicode="7" d="M492 625 q0 -6 -14 -23 q-131 -146 -166 -242 q-39 -107 -39 -318 q0 -41 -26 -41 q-25 0 -25 41 q0 202 31 307 q27 89 150 245 l-308 0 q-33 0 -33 26 q0 23 33 23 l367 0 q30 0 30 -18 Z" /><glyph glyph-name="" unicode="8" d="M487 187 q0 -89 -61 -139 q-57 -47 -149 -47 q-92 0 -149 47 q-61 50 -61 139 q0 131 125 169 q-102 44 -102 141 q0 74 50 117 q51 42 137 42 q86 0 137 -42 q50 -43 50 -117 q0 -97 -102 -141 q125 -38 125 -169 ZM413 497 q0 57 -41 86 q-36 26 -95 26 q-59 0 -94 -26 q-42 -29 -42 -86 q0 -49 45 -84 q41 -32 91 -32 q50 0 91 32 q45 35 45 84 ZM434 187 q0 65 -45 105 q-45 40 -112 40 q-66 0 -111 -40 q-46 -40 -46 -105 q0 -67 46 -104 q42 -35 111 -35 q68 0 113 36 q44 36 44 103 Z" /><glyph glyph-name="" unicode="9" d="M479 340 q0 -339 -213 -339 q-124 0 -166 92 q-9 19 -9 31 q0 29 26 29 q13 0 27 -33 q30 -72 125 -72 q159 0 159 267 q-88 -82 -169 -82 q-84 0 -134 56 q-50 56 -50 139 q0 100 48 160 q53 68 156 68 q118 0 166 -102 q34 -73 34 -214 ZM427 383 q0 88 -27 145 q-37 81 -121 81 q-78 0 -117 -55 q-34 -47 -34 -126 q0 -62 33 -103 q36 -44 98 -44 q42 0 92 32 q45 29 76 70 Z" /><glyph glyph-name="" unicode="a" d="M637 25 q0 -8 -8 -17 q-8 -8 -15 -8 q-23 0 -31 18 l-84 180 l-346 0 l-84 -180 q-8 -18 -30 -18 q-24 0 -24 25 q0 10 9 29 l278 582 q10 21 24 21 q13 0 23 -21 l279 -582 q9 -19 9 -29 ZM474 251 l-148 320 l-148 -320 l296 0 Z" /><glyph glyph-name="" unicode="i" d="M181 33 q0 -33 -26 -33 q-27 0 -27 33 l0 591 q0 33 27 33 q26 0 26 -33 l0 -591 Z" /><glyph glyph-name="" unicode="l" d="M516 40 q0 -26 -34 -26 l-387 0 q-35 0 -35 33 l0 578 q0 32 26 32 q27 0 27 -32 l0 -532 q0 -26 26 -26 l343 0 q34 0 34 -27 Z" /><glyph glyph-name="" unicode="m" d="M746 33 q0 -33 -27 -33 q-26 0 -26 33 l0 492 l-263 -507 q-10 -18 -28 -18 q-17 0 -26 18 l-263 507 l0 -492 q0 -33 -27 -33 q-26 0 -26 33 l0 592 q0 32 30 32 q20 0 29 -18 l283 -558 l284 558 q9 18 30 18 q30 0 30 -32 l0 -592 Z" /><glyph glyph-name="" unicode="r" d="M579 29 q0 -30 -32 -30 q-15 0 -20 24 q-7 37 -14 74 q-9 42 -22 72 q-49 112 -153 112 l-226 0 l0 -249 q0 -33 -26 -33 q-26 0 -26 33 l0 570 q0 18 11 30 q11 11 28 11 l309 0 q68 0 117 -47 q49 -48 49 -115 q0 -67 -47 -116 q-39 -40 -96 -56 q51 -20 90 -80 q24 -38 41 -96 q17 -58 17 -104 ZM515 478 q0 51 -34 82 q-34 30 -85 30 l-257 0 q-27 0 -27 -27 l0 -229 l226 0 q67 0 119 38 q58 42 58 106 Z" /><glyph glyph-name="" unicode="s" d="M532 180 q0 -84 -70 -132 q-69 -48 -176 -48 q-140 0 -218 106 q-28 38 -28 82 q0 28 31 28 q18 0 27 -34 q18 -62 73 -97 q49 -32 111 -32 q78 0 131 30 q60 34 60 97 q0 54 -73 95 q-29 16 -124 51 q-95 34 -135 61 q-73 49 -73 118 q0 152 231 152 q148 0 208 -85 q25 -36 25 -62 q0 -35 -34 -35 q-13 0 -21 18 q-49 112 -178 112 q-61 0 -107 -18 q-63 -26 -63 -77 q0 -48 58 -82 q18 -10 119 -51 q114 -46 146 -68 q80 -52 80 -129 Z" /><glyph glyph-name="" unicode="t" d="M556 616 q0 -26 -33 -26 l-208 0 l0 -558 q0 -33 -27 -33 q-27 0 -27 33 l0 558 l-208 0 q-33 0 -33 26 q0 27 33 27 l470 0 q33 0 33 -27 Z" /><glyph glyph-name="" unicode="&#x3002;" d="M402 151 q0 -63 -44 -107 q-45 -44 -108 -44 q-63 0 -107 44 q-44 44 -44 107 q0 63 44 107 q44 45 107 45 q63 0 108 -45 q44 -44 44 -107 ZM365 151 q0 47 -34 81 q-34 34 -81 34 q-47 0 -80 -34 q-34 -34 -34 -81 q0 -47 34 -81 q33 -33 80 -33 q47 0 81 33 q34 34 34 81 Z" /><glyph glyph-name="" unicode="&#xff5e;" d="M910 438 q0 -8 -26 -46 q-92 -133 -199 -133 q-54 0 -184 78 q-130 78 -185 78 q-60 0 -105 -37 q-34 -28 -71 -88 q-19 -31 -26 -31 q-23 0 -23 24 q0 17 31 60 q85 119 194 119 q56 0 192 -78 q137 -78 177 -78 q53 0 99 40 q27 24 64 76 q29 40 39 40 q23 0 23 -24 Z" /><glyph glyph-name="" unicode="&#x3010;" d="M892 -83 q0 -10 -13 -10 l-226 0 q-45 0 -45 46 l0 814 q0 46 45 46 l226 0 q13 0 13 -10 q0 -5 -22 -24 q-90 -79 -139 -189 q-49 -110 -49 -231 q0 -252 190 -421 q20 -18 20 -21 Z" /><glyph glyph-name="" unicode="&#x3011;" d="M392 -47 q0 -46 -45 -46 l-226 0 q-13 0 -13 10 q0 3 20 21 q190 169 190 421 q0 121 -49 231 q-49 110 -139 189 q-22 19 -22 24 q0 10 13 10 l226 0 q45 0 45 -46 l0 -814 Z" /><glyph glyph-name="" unicode="&#xff08;" d="M887 -70 q0 -23 -22 -23 q-12 0 -68 48 q-80 68 -131 183 q-52 114 -52 221 q0 114 48 223 q48 108 133 183 q54 48 70 48 q22 0 22 -24 q0 -7 -28 -29 q-198 -158 -198 -401 q0 -238 191 -393 q35 -28 35 -36 Z" /><glyph glyph-name="" unicode="&#xff09;" d="M387 359 q0 -107 -51 -221 q-52 -115 -132 -183 q-56 -48 -68 -48 q-22 0 -22 23 q0 8 35 36 q191 155 191 393 q0 243 -198 401 q-28 22 -28 29 q0 24 22 24 q16 0 70 -48 q85 -75 133 -183 q48 -109 48 -223 Z" /><glyph glyph-name="" unicode="&#xff0c;" d="M307 60 q0 -63 -50 -130 q-31 -41 -48 -41 q-15 0 -15 19 q0 3 8 12 q11 14 17 22 q25 37 25 58 q0 5 -23 22 q-23 17 -23 46 q0 23 16 41 q15 18 38 18 q25 0 40 -21 q15 -21 15 -46 Z" /><glyph glyph-name="" unicode="&#xff1a;" d="M306 429 q0 -23 -16 -39 q-17 -17 -40 -17 q-23 0 -40 17 q-16 16 -16 39 q0 23 16 39 q17 17 40 17 q23 0 40 -17 q16 -16 16 -39 ZM306 56 q0 -23 -16 -40 q-17 -16 -40 -16 q-23 0 -40 16 q-16 17 -16 40 q0 23 16 40 q17 16 40 16 q23 0 40 -16 q16 -17 16 -40 Z" /><glyph glyph-name="" unicode="&#x7231;" d="M914 798 q24 -1 27 -27 q-3 -17 -24 -20 q-44 -3 -86 -4 q1 -3 1 -4 q-1 -13 -8 -23 q-36 -72 -82 -129 q-11 -7 -20 -8 q-21 3 -23 24 q0 9 11 19 q39 51 72 118 q-309 -14 -673 -20 q-24 2 -27 23 q1 20 23 24 q416 5 809 27 ZM171 712 q14 0 20 -8 q34 -27 66 -78 q3 -11 4 -16 q0 -23 -27 -23 q-13 0 -20 16 q-29 45 -62 70 q-4 11 -4 16 q3 20 23 23 ZM472 720 q13 0 20 -8 q25 -29 50 -82 q3 -11 4 -16 q0 -23 -27 -23 q-13 0 -19 16 q-23 47 -47 74 q-4 11 -4 15 q3 20 23 24 ZM164 575 l660 0 q90 0 90 -97 q0 -24 -12 -55 q-11 -15 -31 -16 q-20 4 -24 24 q0 3 2 7 q6 12 10 27 q4 15 4 24 q0 39 -43 39 l-641 0 q-39 0 -39 -39 l0 -62 q0 -24 -27 -24 q-24 0 -24 24 l0 74 q0 74 75 74 ZM851 396 q22 -1 24 -24 q-2 -22 -24 -23 l-451 0 q-9 -52 -25 -94 l378 0 q47 -3 47 -47 q-4 -16 -25 -51 q-52 -73 -139 -123 q99 -35 285 -68 q18 -8 20 -23 q-2 -22 -24 -24 l-15 0 q-114 22 -207 50 q-64 19 -111 38 q-113 -55 -287 -97 q-12 -3 -20 -3 q-20 3 -24 20 q2 17 16 23 q162 38 263 80 q-74 42 -127 96 q-36 37 -54 70 q-34 -67 -92 -126 q-56 -62 -146 -120 q-10 -11 -28 -11 q-21 2 -23 23 q0 5 4 20 q83 46 132 93 q86 75 120 172 q21 49 32 102 l-190 0 q-23 1 -24 23 q1 23 24 24 l198 0 q5 43 5 86 q1 19 23 19 q22 -1 24 -23 q0 -43 -4 -82 l445 0 ZM585 54 q9 5 18 10 q90 50 131 109 q16 23 16 27 q0 12 -12 12 l-349 0 q24 -42 65 -79 q57 -47 131 -79 Z" /><glyph glyph-name="" unicode="&#x529e;" d="M437 818 q27 0 27 -24 q0 -80 -3 -152 l203 0 q82 0 82 -82 l-2 -410 q-2 -131 -29 -181 q-28 -50 -83 -50 q-62 0 -168 47 q-14 7 -15 23 q2 25 23 28 q8 0 16 -5 q104 -42 144 -42 q34 0 47 46 q13 40 13 122 l3 414 q0 43 -43 43 l-194 0 q-5 -76 -13 -143 q-14 -109 -48 -212 q-38 -109 -95 -181 q-62 -78 -142 -140 q-11 -3 -28 -4 q-19 5 -23 24 q1 24 19 31 q76 58 129 126 q52 67 78 132 q38 90 56 212 q11 72 17 155 l-244 0 q-23 2 -24 23 q1 22 24 24 l247 0 q3 72 3 152 q1 22 23 24 ZM800 462 q12 0 24 -8 q39 -56 65 -100 q26 -49 56 -115 q4 -9 4 -19 q-3 -21 -24 -24 q-15 0 -23 12 q-27 62 -52 107 q-24 44 -61 100 q-12 16 -12 28 q4 16 23 19 ZM218 462 q21 -1 24 -23 q0 -4 -3 -12 q-22 -67 -47 -117 q-27 -56 -71 -114 q-12 -19 -28 -19 q-21 2 -23 23 q0 9 4 20 q36 42 62 94 q28 47 63 132 q4 15 19 16 Z" /><glyph glyph-name="" unicode="&#x5b9d;" d="M152 708 l337 0 q-16 45 -32 70 q-8 13 -8 20 q2 21 23 23 q12 0 24 -11 q17 -27 43 -94 q1 -5 2 -8 l310 0 q90 0 90 -98 q0 -42 -24 -97 q-11 -15 -31 -16 q-20 4 -23 24 q0 6 3 11 q11 22 18 47 q6 27 6 43 q0 39 -43 39 l-680 0 q-39 0 -39 -39 l0 -97 q0 -24 -27 -24 q-23 0 -23 24 l0 109 q0 74 74 74 ZM792 517 q22 -1 24 -24 q-2 -22 -24 -23 l-269 0 l0 -195 l285 0 q22 -1 24 -24 q-2 -22 -24 -23 l-285 0 l0 -243 l379 0 q22 0 23 -23 q-1 -22 -23 -23 l-797 0 q-22 1 -23 23 q1 23 23 23 l367 0 l0 243 l-289 0 q-22 1 -23 23 q1 23 23 24 l289 0 l0 195 l-273 0 q-23 1 -24 23 q1 23 24 24 l593 0 ZM667 193 q12 0 24 -8 q37 -32 60 -56 q25 -28 53 -65 q4 -10 4 -20 q-3 -20 -23 -23 q-15 0 -24 11 q-25 35 -48 59 q-23 24 -57 55 q-12 16 -12 27 q4 16 23 20 Z" /><glyph glyph-name="" unicode="&#x5954;" d="M917 724 q22 -1 24 -24 q-2 -22 -24 -23 l-315 0 q61 -76 143 -135 q69 -46 200 -103 q15 -5 15 -24 q-2 -21 -23 -23 q-3 0 -18 4 q-114 47 -204 109 q-83 58 -161 160 q-4 8 -4 12 l-80 0 q-28 -49 -63 -84 q-64 -66 -147 -111 q-79 -45 -175 -82 q-9 -4 -19 -4 q-23 5 -27 23 q0 16 11 24 q79 27 152 63 q82 40 158 109 q30 30 52 62 l-330 0 q-23 1 -24 23 q1 23 24 24 l359 0 q19 36 31 74 q2 22 24 23 q25 -1 27 -23 q-12 -40 -28 -74 l422 0 ZM789 427 q22 -1 23 -24 q-1 -22 -23 -23 l-266 0 l0 -125 q-2 -22 -23 -23 q-27 1 -28 23 l0 125 l-246 0 q-22 1 -23 23 q1 23 23 24 l246 0 l0 101 q1 23 28 24 q21 -1 23 -24 l0 -101 l266 0 ZM921 185 q22 -1 24 -24 q-2 -22 -24 -23 l-164 0 l0 -219 q-1 -22 -23 -23 q-26 1 -27 23 l0 219 l-400 0 q-3 -44 -14 -78 q-21 -57 -70 -96 q-36 -27 -83 -49 q-11 -8 -23 -8 q-20 4 -24 24 q0 12 8 19 q46 21 72 39 q47 30 69 76 q14 37 18 73 l-182 0 q-23 1 -24 23 q1 23 24 24 l183 0 l0 113 q2 22 24 23 q22 -1 23 -23 l0 -113 l399 0 l0 117 q1 22 27 23 q22 -1 23 -23 l0 -117 l164 0 Z" /><glyph glyph-name="" unicode="&#x672c;" d="M878 642 q22 -1 24 -24 q-2 -22 -24 -23 l-359 0 l0 -5 q70 -118 167 -223 q88 -100 263 -221 q4 -8 4 -16 q-3 -19 -20 -23 q-18 0 -27 11 q-167 111 -266 229 q-77 91 -121 171 l0 -368 l254 0 q22 -1 23 -24 q-1 -22 -23 -23 l-254 0 l0 -180 q-1 -22 -23 -23 q-27 1 -28 23 l0 180 l-246 0 q-22 1 -23 23 q1 23 23 24 l246 0 l0 360 q-62 -98 -134 -176 q-101 -119 -241 -227 q-12 -4 -19 -4 q-22 5 -24 23 q0 12 12 24 q148 115 239 216 q84 90 166 229 l-366 0 q-22 1 -23 23 q1 23 23 24 l367 0 l0 144 q1 23 28 24 q22 -1 23 -24 l0 -144 l359 0 Z" /><glyph glyph-name="" unicode="&#x5e01;" d="M226 525 l270 0 l0 168 q-142 -12 -371 -16 q-23 1 -24 27 q2 17 24 20 q228 4 386 18 q153 12 352 43 q6 1 12 1 q20 0 23 -19 q-1 -21 -20 -28 q-184 -29 -332 -42 l0 -172 l258 0 q86 0 86 -86 l0 -282 q0 -109 -109 -109 q-59 0 -129 23 q-17 6 -20 24 q3 25 28 27 q1 0 9 -1 q67 -22 108 -22 q62 0 62 62 l0 266 q0 51 -50 51 l-243 0 l0 -551 q-1 -22 -23 -24 q-26 2 -27 24 l0 551 l-254 0 q-51 0 -51 -51 l0 -359 q0 -24 -27 -24 q-24 0 -24 24 l0 371 q0 86 86 86 Z" /><glyph glyph-name="" unicode="&#x7f16;" d="M335 638 q30 -1 32 -28 q-1 -6 -8 -19 q-31 -76 -79 -151 q-48 -81 -128 -176 q94 16 183 54 q25 -1 28 -28 q-3 -21 -28 -23 q-111 -47 -250 -63 q-23 3 -27 28 q3 19 24 22 q94 106 141 188 q8 13 14 24 q-73 -25 -159 -35 q-24 3 -28 27 q2 12 12 18 q1 9 4 17 q78 117 137 282 q5 18 23 19 q21 -1 24 -23 q-2 -5 -3 -12 q-51 -155 -122 -271 q74 11 144 40 l2 0 q25 49 45 98 q7 11 19 12 ZM328 118 q24 -1 27 -27 q-3 -21 -27 -23 q-116 -56 -258 -75 q-24 3 -28 28 q3 20 28 23 q133 13 258 74 ZM843 661 l-359 0 q-47 0 -47 -47 l0 -89 l422 0 q23 0 23 23 l0 90 q0 23 -23 23 l-16 0 ZM437 478 l0 -114 q0 -109 -21 -253 q-21 -102 -49 -184 q-6 -15 -28 -16 q-22 2 -23 28 q41 133 54 213 q16 126 16 212 l0 266 q0 78 78 78 l179 0 q-17 46 -34 70 q-7 13 -8 20 q2 21 24 23 q12 0 23 -11 q18 -25 43 -86 q4 -11 4 -16 l172 0 q66 0 66 -66 l0 -98 q0 -66 -66 -66 l-430 0 ZM535 392 l332 0 q74 0 74 -74 l0 -309 q0 -86 -86 -86 q-30 0 -66 20 q-1 0 -2 1 q-6 -8 -18 -9 q-22 1 -23 23 l0 188 l-90 0 l0 -188 q-2 -22 -24 -23 q-22 1 -23 23 l0 188 l-98 0 l0 -200 q0 -23 -27 -23 q-24 0 -24 23 l0 372 q0 74 75 74 ZM792 146 l0 -154 q2 1 4 1 l5 0 q31 -19 50 -19 q39 0 39 39 l0 133 l-98 0 ZM511 193 l98 0 l0 152 l-59 0 q-39 0 -39 -39 l0 -113 ZM656 345 l0 -152 l90 0 l0 152 l-90 0 ZM792 345 l0 -152 l98 0 l0 113 q0 39 -39 39 l-59 0 Z" /><glyph glyph-name="" unicode="&#x522b;" d="M707 747 q22 -1 23 -23 l0 -578 q-1 -22 -23 -24 q-27 2 -28 24 l0 578 q1 22 28 23 ZM890 814 q26 -1 27 -24 l0 -789 q0 -86 -85 -86 q-52 0 -133 20 q-10 14 -12 19 q0 31 20 31 l10 0 q62 -18 111 -19 q39 0 39 39 l0 785 q1 23 23 24 ZM167 790 l313 0 q70 0 70 -70 l0 -172 q0 -70 -70 -70 l-313 0 q-70 0 -70 70 l0 172 q0 70 70 70 ZM460 525 q40 0 40 39 l0 140 q0 39 -40 39 l-273 0 q-39 0 -39 -39 l0 -140 q0 -39 39 -39 l273 0 ZM70 318 l198 0 q4 51 5 109 q1 22 23 23 q25 -1 28 -23 q-2 -59 -6 -109 l189 0 q86 0 86 -86 q-4 -172 -20 -248 q-8 -48 -35 -61 q-21 -16 -58 -16 q-52 0 -129 36 q-14 8 -16 23 q1 26 28 27 l5 0 q72 -35 112 -35 q18 0 28 8 q11 9 15 28 q8 27 12 85 q7 78 7 145 q0 47 -46 47 l-182 0 q-4 -33 -8 -61 q-17 -101 -48 -162 q-30 -56 -77 -92 q-40 -33 -103 -45 q-25 4 -28 32 q2 20 28 27 q53 9 83 37 q37 31 61 84 q25 54 39 147 q2 16 3 33 l-194 0 q-22 5 -24 23 q2 19 24 24 Z" /><glyph glyph-name="" unicode="&#x94c2;" d="M226 814 q24 -2 27 -24 q-10 -72 -25 -125 l170 0 q26 -1 27 -27 q-1 -26 -27 -28 l-187 0 q-2 -6 -4 -11 q-15 -45 -40 -90 l196 0 q26 -1 27 -27 q-1 -26 -27 -28 l-102 0 l0 -136 l137 0 q26 -1 27 -28 q-1 -26 -27 -27 l-137 0 l0 -258 q47 24 118 80 q7 6 19 6 q17 -3 19 -23 q0 -6 -10 -17 q-66 -57 -115 -90 q-22 -14 -42 -15 q-40 0 -40 63 l0 254 l-125 0 q-26 1 -27 27 q1 27 27 28 l125 0 l0 136 l-76 0 q-16 -24 -33 -47 q-11 -11 -27 -11 q-23 6 -28 27 q0 9 8 23 q60 66 95 153 q30 65 50 195 q1 19 27 20 ZM664 821 q25 -1 27 -31 q-7 -19 -21 -48 q-8 -15 -18 -30 l187 0 q82 0 82 -82 l0 -621 q0 -82 -82 -82 l-293 0 q-82 0 -82 82 l0 621 q0 82 82 82 l51 0 q10 16 17 31 q16 33 22 55 q4 22 28 23 ZM832 -26 q39 0 39 39 l0 289 l-356 0 l0 -289 q0 -39 39 -39 l278 0 ZM515 349 l356 0 l0 277 q0 39 -39 39 l-278 0 q-39 0 -39 -39 l0 -277 Z" /><glyph glyph-name="" unicode="&#x4e0d;" d="M933 755 q22 -1 24 -23 q-2 -22 -24 -24 l-352 0 q-24 -65 -62 -131 l0 -650 q-1 -26 -27 -27 q-27 1 -28 27 l0 561 q-1 -2 -2 -3 q-67 -94 -174 -179 q-100 -81 -210 -137 q-5 -3 -16 -4 q-23 4 -27 24 q1 11 7 19 q100 52 173 104 q123 92 185 172 q74 96 130 224 l-464 0 q-23 2 -24 24 q1 22 24 23 l867 0 ZM609 517 q12 0 23 -12 q123 -92 297 -320 q4 -12 4 -20 q-3 -17 -27 -19 q-12 0 -20 11 q-149 208 -293 317 q-7 12 -8 19 q2 22 24 24 Z" /><glyph glyph-name="" unicode="&#x4ea7;" d="M910 716 q22 -1 23 -23 q-1 -22 -23 -24 l-770 0 q-22 2 -23 24 q1 22 23 23 l345 0 q-12 38 -25 59 q-7 12 -7 19 q2 25 23 27 q14 0 27 -11 q15 -24 36 -82 q1 -7 2 -12 l369 0 ZM308 634 q16 0 24 -8 q41 -51 82 -144 q2 -14 3 -20 q0 -6 -1 -8 l190 0 q-1 2 -1 4 q0 5 8 16 q51 62 90 144 q8 24 31 24 q18 -1 19 -28 q0 -2 -2 -12 q-38 -87 -87 -148 l265 0 q21 -2 24 -23 q-3 -21 -24 -24 l-715 0 q-43 0 -43 -43 l0 -136 q0 -79 -22 -183 q-22 -74 -52 -134 q-6 -15 -27 -15 q-23 1 -24 27 q44 95 58 152 q17 91 17 153 l0 148 q0 78 78 78 l170 0 q-1 3 -2 4 q-38 85 -78 133 q-4 14 -4 19 q3 21 23 24 Z" /><glyph glyph-name="" unicode="&#x957f;" d="M929 423 q22 -1 24 -23 q-2 -22 -24 -24 l-397 0 q67 -113 157 -199 q111 -100 271 -188 q8 -9 8 -23 q-5 -22 -23 -27 q-16 0 -28 7 q-207 125 -290 222 q-78 87 -138 208 l-185 0 l0 -407 q91 29 130 48 q47 20 89 47 q8 7 16 7 q21 0 23 -19 q0 -19 -12 -31 q-48 -30 -111 -56 q-66 -27 -147 -50 q-15 -3 -23 -4 q-19 3 -19 20 q0 11 4 17 q-1 3 -1 6 l0 422 l-179 0 q-23 2 -24 24 q1 22 24 23 l179 0 l0 367 q1 23 28 24 q22 -1 23 -24 l0 -367 l625 0 ZM773 782 q19 -2 23 -19 q0 -10 -4 -20 q-63 -80 -160 -146 q-91 -61 -183 -96 q-15 -4 -24 -4 q-20 4 -23 24 q1 19 19 23 q113 46 186 97 q78 52 139 126 q10 15 27 15 Z" /><glyph glyph-name="" unicode="&#x6210;" d="M921 669 q21 -2 24 -23 q-3 -21 -24 -24 l-339 0 q7 -63 17 -125 q26 -150 80 -273 q8 -21 18 -42 q13 17 23 33 q71 117 100 274 q2 22 23 24 q26 -1 28 -24 q-37 -188 -104 -295 q-21 -34 -43 -62 q18 -31 39 -61 q40 -55 78 -88 q16 -13 26 -13 q15 0 22 16 q31 83 36 171 q2 22 20 24 q30 -1 31 -28 q-7 -122 -37 -196 q-19 -46 -68 -46 q-26 0 -67 35 q-68 64 -115 143 q-26 -31 -54 -55 q-70 -65 -155 -119 q-10 -3 -20 -4 q-22 5 -27 24 q0 16 12 23 q70 42 135 96 q43 34 83 83 q-3 6 -6 11 q-56 111 -89 251 q-22 97 -37 223 l-321 0 q-46 0 -46 -47 l0 -164 l218 0 q67 0 67 -66 q0 -99 -11 -172 q-12 -91 -39 -119 q-31 -33 -79 -33 q-35 0 -86 23 q-22 6 -24 24 q2 29 28 31 q5 0 12 -3 q50 -21 70 -21 q24 0 39 18 q15 14 26 74 q13 61 13 158 q0 39 -39 39 l-195 0 l0 -11 q0 -107 -21 -246 q-21 -100 -50 -180 q-6 -15 -27 -16 q-23 2 -24 28 q42 129 55 207 q16 123 16 207 l0 242 q0 74 74 74 l339 0 q-6 64 -11 133 q4 23 24 23 q23 -3 27 -23 q3 -67 10 -133 l345 0 ZM707 806 q11 0 23 -8 q37 -21 61 -38 q24 -19 52 -44 q4 -10 4 -20 q-2 -21 -23 -23 q-15 0 -24 12 q-25 22 -48 38 q-22 16 -57 36 q-12 16 -12 27 q4 16 24 20 Z" /><glyph glyph-name="" unicode="&#x6b21;" d="M300 349 q21 -1 24 -20 q-1 -18 -12 -31 q-41 -89 -94 -166 q-56 -84 -125 -150 q-15 -4 -23 -4 q-19 2 -20 19 q1 22 20 28 q100 111 139 175 q40 62 76 141 q7 7 15 8 ZM460 821 q25 -1 28 -23 q-10 -72 -26 -125 l405 0 q62 0 62 -63 q-2 -25 -19 -80 q-21 -64 -73 -156 q-9 -12 -17 -14 q-23 4 -28 24 q0 5 4 18 q47 88 64 147 q15 46 15 61 q0 20 -20 20 l-407 0 q-2 -7 -5 -14 q-30 -88 -100 -181 q-11 -12 -27 -12 q-19 5 -24 23 q0 9 8 24 q56 62 90 145 q28 62 47 187 q1 18 23 19 ZM621 575 q24 -2 27 -23 l0 -137 q0 -75 39 -171 q32 -82 92 -146 q64 -75 185 -140 q12 -7 12 -23 q-1 -21 -23 -24 q-6 0 -16 5 q-91 49 -140 93 q-63 53 -104 120 q-44 68 -72 185 q-12 -98 -70 -179 q-50 -69 -119 -120 q-67 -53 -168 -100 q-6 -4 -14 -4 q-23 3 -24 24 q2 17 12 23 q135 65 213 140 q73 68 112 157 q34 91 34 160 l0 137 q2 21 24 23 ZM105 763 q9 0 34 -19 q52 -37 125 -121 q17 -22 17 -32 q0 -27 -28 -27 q-9 0 -19 13 q-73 88 -139 135 q-17 13 -17 23 q0 28 27 28 Z" /><glyph glyph-name="" unicode="&#x5927;" d="M906 591 q22 -1 23 -27 q-1 -22 -23 -24 l-382 0 q4 -61 41 -155 q37 -89 103 -172 q95 -115 277 -231 q11 -9 12 -24 q-1 -25 -28 -27 q-10 0 -20 6 q-105 70 -173 130 q-102 88 -159 180 q-58 92 -81 196 q-27 -96 -84 -192 q-48 -84 -121 -158 q-84 -86 -208 -156 q-11 -6 -17 -6 q-26 0 -27 23 q1 17 19 28 q167 99 253 211 q86 112 122 217 q31 74 34 130 l-374 0 q-22 2 -23 24 q1 26 23 27 l375 0 l0 195 q3 25 28 28 q24 -3 27 -28 l0 -195 l383 0 Z" /><glyph glyph-name="" unicode="&#x5f85;" d="M242 810 q24 -1 27 -24 l-1 -4 q-15 -50 -44 -104 q-24 -45 -63 -85 q-36 -38 -76 -65 q-4 -3 -15 -3 q-24 3 -28 23 q1 12 8 20 q34 22 59 45 q42 40 63 75 q26 43 46 102 q3 19 24 20 ZM285 607 q24 -1 27 -24 l-2 -5 q-19 -64 -56 -133 q-13 -23 -28 -44 l0 -478 q-1 -22 -27 -23 q-23 1 -24 23 l0 417 q-2 -2 -3 -3 q-47 -48 -98 -82 q-5 -3 -16 -4 q-23 4 -27 24 q1 11 8 19 q44 30 78 60 q55 52 83 98 q35 57 61 135 q3 19 24 20 ZM878 689 q22 -1 24 -24 q-2 -22 -24 -23 l-234 0 l0 -145 l277 0 q22 -1 24 -23 q-2 -22 -24 -24 l-570 0 q-22 2 -23 24 q1 22 23 23 l242 0 l0 145 l-215 0 q-22 1 -23 23 q1 23 23 24 l215 0 l0 109 q1 22 24 23 q26 -1 27 -23 l0 -109 l234 0 ZM910 318 q22 -1 23 -24 q-1 -22 -23 -23 l-78 0 l0 -223 q0 -137 -125 -137 q-55 0 -141 24 q-10 14 -12 19 q1 31 20 31 l11 0 q65 -21 118 -23 q78 0 78 78 l0 231 l-414 0 q-23 1 -24 23 q1 23 24 24 l414 0 l0 93 q1 23 23 24 q26 -1 28 -24 l0 -93 l78 0 ZM433 220 q10 0 20 -8 q38 -33 63 -59 q25 -28 54 -66 q4 -10 4 -19 q-3 -18 -24 -20 q-12 0 -19 12 q-26 35 -50 60 q-23 25 -60 57 q-11 14 -11 23 q4 16 23 20 Z" /><glyph glyph-name="" unicode="&#x5355;" d="M273 806 q12 0 23 -8 q37 -34 61 -60 q24 -29 53 -69 q4 -10 4 -19 q-3 -21 -24 -24 q-15 0 -23 12 q-26 36 -49 63 q-22 26 -57 58 q-11 16 -11 27 q4 16 23 20 ZM757 814 q17 -1 20 -24 q-1 -3 -4 -15 q-26 -41 -60 -73 q-34 -35 -81 -68 q-13 -4 -19 -4 q-18 4 -20 20 q0 12 12 23 q45 33 74 63 q27 27 55 70 q9 8 23 8 ZM210 622 l579 0 q66 0 66 -66 l0 -258 q0 -66 -66 -66 l-266 0 l0 -110 l418 0 q22 -1 23 -23 q-1 -22 -23 -24 l-418 0 l0 -144 q-2 -22 -23 -24 q-27 2 -28 24 l0 144 l-402 0 q-23 2 -24 24 q1 22 24 23 l402 0 l0 110 l-262 0 q-66 0 -66 66 l0 258 q0 66 66 66 ZM765 278 q39 0 39 40 l0 85 l-281 0 l0 -125 l242 0 ZM472 278 l0 125 l-277 0 l0 -85 q0 -40 39 -40 l238 0 ZM195 446 l277 0 l0 129 l-238 0 q-39 0 -39 -39 l0 -90 ZM523 575 l0 -129 l281 0 l0 90 q0 39 -39 39 l-242 0 Z" /><glyph glyph-name="" unicode="&#x5bfc;" d="M921 271 q22 -1 24 -24 q-2 -22 -24 -23 l-175 0 l0 -227 q0 -94 -94 -94 q-57 0 -149 36 q-9 14 -11 19 q1 30 23 31 q5 0 12 -1 q68 -32 121 -34 q47 0 47 47 l0 223 l-398 0 q18 -33 30 -59 q17 -40 36 -94 q4 -9 4 -19 q-3 -21 -24 -24 q-15 0 -23 12 q-17 50 -32 87 q-15 35 -38 81 q-7 9 -9 16 l-163 0 q-23 1 -24 23 q1 23 24 24 l617 0 l0 70 q1 22 23 23 q26 -1 28 -23 l0 -70 l175 0 ZM488 732 l-223 0 q-31 0 -31 -32 l0 -90 l476 0 q32 0 32 32 l0 58 q0 32 -32 32 l-222 0 ZM234 564 l0 -94 q0 -47 47 -47 l484 0 q28 0 44 18 q13 10 15 95 q0 23 27 24 q22 -2 24 -32 q0 -33 -6 -72 q-4 -42 -30 -59 q-28 -21 -74 -21 l-500 0 q-82 0 -82 82 l0 258 q0 62 63 62 l484 0 q62 0 62 -62 l0 -90 q0 -62 -62 -62 l-496 0 Z" /><glyph glyph-name="" unicode="&#x5230;" d="M542 759 q22 -1 24 -24 q-2 -21 -24 -23 l-233 0 l-168 -254 q243 4 356 43 q-27 39 -68 86 q-12 14 -12 23 q5 17 24 20 q10 0 19 -8 q44 -50 72 -88 q29 -42 61 -99 q4 -10 4 -20 q-2 -17 -23 -19 q-13 0 -20 11 q-16 30 -32 56 q-68 -28 -183 -41 l0 -163 l184 0 q22 -1 23 -24 q-1 -21 -23 -23 l-184 0 l0 -208 q119 14 231 36 q24 -1 27 -27 q-3 -21 -27 -24 q-225 -44 -504 -58 q-24 3 -27 27 q2 20 27 24 q114 4 223 16 l0 214 l-188 0 q-22 2 -23 23 q1 23 23 24 l188 0 l0 158 q-83 -6 -184 -6 q-35 0 -35 24 q0 16 15 20 l169 257 l-161 0 q-22 2 -23 23 q1 23 23 24 l449 0 ZM695 700 q22 -1 23 -23 l0 -547 q-1 -22 -23 -23 q-27 1 -28 23 l0 547 q1 22 28 23 ZM878 810 q26 -1 28 -24 l0 -773 q0 -102 -102 -102 q-58 0 -152 28 q-10 14 -12 19 q1 30 24 31 q5 0 13 -1 q71 -24 127 -26 q51 0 51 51 l0 773 q1 23 23 24 Z" /><glyph glyph-name="" unicode="&#x7684;" d="M273 814 q25 -1 27 -24 q0 -7 -8 -19 q-12 -28 -30 -56 q-16 -26 -39 -54 l116 0 q82 0 82 -82 l0 -543 q0 -82 -82 -82 l-179 0 q-82 0 -82 82 l0 543 q0 82 82 82 l5 0 q32 36 48 64 q24 37 40 77 q8 11 20 12 ZM328 1 q43 0 43 43 l0 246 l-243 0 l0 -246 q0 -43 43 -43 l157 0 ZM128 337 l243 0 l0 234 q0 43 -43 43 l-157 0 q-43 0 -43 -43 l0 -234 ZM589 821 q21 -1 24 -23 l-1 -5 q-7 -52 -22 -108 l242 0 q78 0 78 -78 l-3 -435 q-3 -139 -40 -192 q-40 -53 -117 -53 q-55 0 -149 27 q-14 8 -16 24 q2 25 24 27 q7 0 14 -2 q91 -25 127 -25 q58 0 82 48 q22 43 22 130 l5 439 q0 43 -43 43 l-234 0 q-3 0 -5 1 q-13 -43 -33 -84 q-23 -48 -48 -81 q-5 -4 -16 -4 q-20 3 -23 19 q1 15 7 24 q21 30 36 59 q25 52 38 97 q16 56 28 133 q3 19 23 19 ZM589 458 q14 0 20 -8 q59 -89 117 -254 q3 -10 4 -15 q0 -24 -27 -24 q-14 0 -20 16 q-54 156 -113 246 q-4 11 -4 16 q3 20 23 23 Z" /><glyph glyph-name="" unicode="&#x7b49;" d="M179 821 q21 -2 24 -23 q-1 -6 -4 -16 q-7 -20 -13 -35 l255 0 q22 -1 23 -23 q-1 -22 -23 -24 l-111 0 q17 -30 33 -74 q2 -11 4 -16 q0 -23 -28 -23 q-13 0 -19 16 q-21 57 -43 90 q-1 4 -2 7 l-110 0 q-7 -14 -14 -25 q-25 -44 -62 -84 q-9 -3 -19 -4 q-17 6 -24 20 q0 14 12 23 q19 22 33 43 q23 31 34 56 q14 27 31 77 q6 15 23 15 ZM632 821 q21 -2 24 -23 q-1 -6 -4 -16 q-7 -19 -14 -35 l287 0 q22 -1 24 -23 q-2 -22 -24 -24 l-127 0 q18 -25 41 -70 q4 -12 4 -20 q-3 -17 -27 -19 q-12 0 -20 12 q-26 54 -50 82 q-6 9 -7 15 l-124 0 q-2 -4 -4 -7 q-22 -37 -53 -71 q-10 -3 -19 -4 q-17 7 -24 20 q0 14 12 23 q15 18 28 35 q18 26 28 47 q12 22 26 63 q6 15 23 15 ZM847 536 q22 -1 24 -23 q-2 -22 -24 -24 l-332 0 l0 -105 l410 0 q22 -1 24 -24 q-2 -21 -24 -23 l-175 0 l0 -121 l148 0 q22 -1 23 -23 q-1 -22 -23 -24 l-148 0 l0 -172 q0 -86 -86 -86 q-76 0 -196 35 q-10 15 -11 20 q1 30 23 31 q6 0 16 -1 q87 -32 156 -34 q47 0 47 47 l0 160 l-598 0 q-22 2 -23 24 q1 22 23 23 l598 0 l0 121 l-625 0 q-23 2 -24 23 q1 23 24 24 l394 0 l0 105 l-320 0 q-23 2 -23 24 q0 22 23 23 l320 0 l0 63 q1 22 24 23 q22 -1 23 -23 l0 -63 l332 0 ZM277 146 q12 0 23 -12 q39 -30 94 -106 q4 -12 4 -19 q-3 -17 -27 -20 q-12 0 -20 12 q-46 67 -90 102 q-7 12 -8 19 q2 22 24 24 Z" /><glyph glyph-name="" unicode="&#x5730;" d="M328 548 q22 -1 23 -23 q-1 -22 -23 -24 l-102 0 l0 -433 q4 2 7 3 q48 21 91 47 q8 8 15 8 q21 0 24 -19 q-1 -19 -12 -32 q-49 -29 -113 -55 q-67 -28 -149 -50 q-15 -4 -23 -4 q-19 2 -20 19 q1 22 20 28 q66 20 109 35 l0 453 l-97 0 q-23 2 -24 24 q1 22 24 23 l97 0 l0 238 q1 23 24 24 q26 -1 27 -24 l0 -238 l102 0 ZM835 610 q63 0 63 -62 l0 -146 q0 -66 -3 -115 q-6 -66 -30 -86 q-18 -20 -49 -20 q-29 0 -90 23 q-22 9 -23 24 q1 27 27 27 q4 0 10 -1 q53 -22 80 -22 q10 0 16 17 q7 14 9 58 q2 33 2 77 l0 156 q0 16 -15 16 q-8 0 -16 -3 l-141 -53 l0 -331 q-1 -22 -23 -23 q-23 1 -24 23 l0 313 l-164 -62 l0 -392 q0 -46 47 -46 l321 0 q33 0 52 23 q15 14 18 125 q0 22 23 23 q22 -1 24 -31 q0 -41 -6 -89 q-5 -51 -32 -73 q-30 -25 -79 -25 l-336 0 q-79 0 -79 78 l0 389 l-59 -23 q-7 -3 -15 -3 q-26 2 -27 27 q5 16 27 20 l74 29 l0 276 q1 22 24 23 q22 -1 23 -23 l0 -258 l164 63 l0 253 q1 23 24 24 q22 -1 23 -24 l0 -235 l141 55 q8 4 19 4 Z" /><glyph glyph-name="" unicode="&#x9012;" d="M97 790 q12 0 24 -8 q45 -28 75 -50 q31 -25 65 -59 q4 -10 4 -20 q-3 -20 -23 -23 q-15 0 -24 12 q-31 31 -61 53 q-28 21 -72 48 q-11 16 -11 28 q4 16 23 19 ZM74 517 l93 0 q71 0 71 -71 l0 -320 q18 -72 71 -110 q69 -50 179 -50 l445 0 q25 -1 27 -27 q-2 -21 -27 -24 l-441 0 q-97 0 -164 29 q-70 35 -110 112 q-22 -49 -52 -80 q-31 -35 -76 -55 q-9 -6 -16 -6 q-21 4 -24 24 q2 22 20 27 q44 19 78 63 q39 45 39 97 l0 309 q0 35 -35 35 l-78 0 q-28 0 -28 23 q0 24 28 24 ZM437 814 q8 0 20 -4 q48 -43 93 -94 q12 -8 12 -23 q-2 -9 -7 -12 l97 0 q-3 4 -4 8 q0 13 8 23 q29 25 53 50 q22 25 37 44 q6 10 19 12 q17 -2 20 -20 q-1 -7 -4 -16 q-31 -47 -90 -101 l137 0 q74 0 74 -74 l0 -55 q0 -74 -74 -74 l-188 0 l0 -106 l211 0 q86 0 86 -86 q0 -55 -7 -97 q-9 -52 -29 -67 q-23 -19 -58 -19 q-41 0 -101 15 q-22 6 -24 24 q2 30 28 31 q5 0 14 -1 q59 -15 83 -15 q13 0 22 9 q8 7 14 36 q7 30 7 76 q0 47 -47 47 l-199 0 l0 -300 q-1 -22 -23 -24 q-27 2 -28 24 l0 248 q-26 -30 -54 -56 q-36 -36 -87 -72 q-56 -41 -133 -79 q-7 -2 -7 -2 q-21 3 -23 27 q0 13 19 19 q72 38 113 70 q39 26 71 58 q45 43 80 87 l-182 0 q-62 0 -62 63 l11 70 q7 67 71 67 l183 0 l0 109 l-246 0 q-23 0 -23 23 q0 24 23 24 l173 0 q-41 49 -83 86 q-14 7 -16 23 q4 19 20 24 ZM640 634 l0 -109 l176 0 q35 0 35 35 l0 39 q0 35 -35 35 l-176 0 ZM589 372 l0 106 l-179 0 q-22 0 -24 -24 l-11 -58 q0 -24 23 -24 l191 0 Z" /><glyph glyph-name="" unicode="&#x8ba2;" d="M140 810 q12 0 24 -8 q43 -29 70 -52 q30 -26 62 -61 q4 -10 4 -20 q-3 -20 -23 -23 q-15 0 -24 11 q-29 32 -57 56 q-26 22 -68 50 q-11 16 -11 27 q4 16 23 20 ZM203 216 l0 227 q0 23 -24 23 l-105 0 q-24 0 -24 23 q0 24 24 24 l129 0 q47 0 47 -47 l0 -461 l95 94 q7 8 22 8 q16 -4 19 -20 q0 -8 -11 -21 l-108 -119 q-16 -14 -33 -16 q-31 0 -31 43 l0 242 ZM937 755 q22 -1 23 -23 q-1 -22 -23 -24 l-152 0 l0 -695 q0 -98 -94 -98 q-88 0 -231 43 q-9 14 -11 20 q1 29 23 31 q8 0 20 -2 q109 -39 195 -41 q47 0 47 47 l0 695 l-324 0 q-23 2 -24 24 q1 22 24 23 l527 0 Z" /><glyph glyph-name="" unicode="&#x52a8;" d="M472 610 l164 0 l0 180 q2 23 24 24 q22 -1 23 -24 l0 -180 l149 0 q85 0 85 -85 l-2 -393 q-2 -125 -32 -172 q-32 -49 -94 -49 q-52 0 -141 24 q-14 7 -16 23 q2 25 24 27 q7 0 13 -1 q86 -22 120 -22 q42 0 58 44 q16 39 16 117 l4 394 q0 47 -47 47 l-138 0 q-2 -121 -16 -226 q-15 -123 -50 -215 q-35 -96 -109 -204 q-11 -4 -19 -4 q-25 3 -28 28 q3 14 16 19 q64 96 96 187 q32 75 50 216 q12 93 13 199 l-163 0 q-22 2 -23 23 q1 22 23 23 ZM402 728 q22 -1 23 -24 q-1 -22 -23 -23 l-281 0 q-23 1 -24 23 q1 23 24 24 l281 0 ZM433 497 q22 -1 24 -23 q-2 -22 -24 -24 l-190 0 l-104 -386 q128 14 249 57 q-35 89 -68 142 q-8 13 -8 19 q2 22 23 24 q13 0 24 -12 q42 -65 101 -226 q4 -13 4 -20 q-3 -17 -27 -20 q-12 0 -20 12 q-7 21 -13 38 q-139 -49 -307 -65 q-23 2 -27 23 q2 17 17 22 l106 392 l-108 0 q-22 2 -23 24 q1 22 23 23 l348 0 Z" /><glyph glyph-name="" unicode="&#x800c;" d="M917 755 q22 -1 24 -23 q-2 -22 -24 -24 l-428 0 l-76 -160 l403 0 q78 0 78 -78 l0 -473 q0 -86 -86 -86 q-46 0 -101 16 q-18 6 -20 27 q2 25 27 28 q1 0 8 -1 q48 -15 78 -15 q39 0 39 39 l0 457 q0 39 -39 39 l-168 0 l0 -547 q-1 -22 -23 -23 q-26 1 -27 23 l0 547 l-188 0 l0 -547 q-1 -22 -23 -23 q-27 1 -28 23 l0 547 l-144 0 q-39 0 -39 -39 l0 -523 q0 -28 -28 -28 q-27 0 -27 28 l0 531 q0 78 78 78 l175 0 l76 160 l-352 0 q-23 2 -24 24 q1 22 24 23 l835 0 Z" /><glyph glyph-name="" unicode="&#x513f;" d="M339 802 q26 -1 28 -24 l0 -378 q0 -112 -24 -195 q-34 -104 -115 -176 q-58 -50 -135 -90 q-11 -8 -23 -8 q-24 4 -28 27 q0 12 8 20 q77 39 120 76 q77 59 115 148 q31 99 31 198 l0 378 q2 23 23 24 ZM605 806 q22 -1 23 -24 l0 -746 q0 -51 51 -51 l137 0 q34 0 53 37 q15 21 17 194 q0 22 28 23 q21 -1 23 -31 q0 -58 -6 -128 q-5 -74 -33 -105 q-31 -36 -82 -36 l-152 0 q-86 0 -86 86 l0 757 q1 23 27 24 Z" /><glyph glyph-name="" unicode="&#x53d1;" d="M417 814 q22 -1 24 -24 q0 -106 -14 -199 l483 0 q23 0 23 -23 q0 -24 -23 -24 l-490 0 q-9 -51 -22 -96 q-5 -17 -10 -33 l412 0 q47 0 47 -47 q-5 -21 -34 -75 q-43 -76 -116 -149 q-31 -31 -65 -56 q47 -33 98 -57 q82 -42 187 -65 q21 -8 24 -27 q-3 -25 -27 -28 q-14 0 -31 7 q-99 27 -198 82 q-50 28 -93 60 q-31 -21 -63 -37 q-106 -58 -275 -108 q-10 -4 -24 -8 q-22 2 -23 24 q0 16 15 23 q178 55 267 103 q34 18 62 35 q-30 25 -55 52 q-78 85 -133 205 q-37 -86 -97 -163 q-64 -92 -169 -177 q-10 -11 -27 -12 q-22 3 -24 24 q0 5 4 19 q97 71 153 142 q100 112 140 259 q16 51 27 103 l-183 0 q-55 0 -55 55 q0 9 39 152 q6 24 28 24 q23 0 23 -24 q-39 -129 -39 -137 q0 -23 24 -23 l171 0 q16 98 16 203 q1 19 23 20 ZM402 372 q59 -134 146 -215 q22 -21 43 -38 q34 23 59 47 q76 74 120 151 q18 30 22 47 q0 8 -15 8 l-375 0 ZM679 798 q9 0 32 -15 q49 -29 117 -96 q15 -18 15 -26 q0 -27 -27 -27 q-9 0 -18 11 q-68 70 -130 107 q-16 10 -16 19 q0 27 27 27 Z" /><glyph glyph-name="" unicode="&#x6cd5;" d="M113 810 q8 0 30 -17 q46 -35 111 -110 q15 -21 15 -30 q0 -27 -27 -27 q-9 0 -17 12 q-65 80 -124 122 q-16 13 -16 22 q0 28 28 28 ZM78 575 q8 0 31 -17 q47 -36 114 -116 q15 -21 15 -31 q0 -27 -28 -27 q-8 0 -17 13 q-67 83 -127 128 q-16 13 -16 23 q0 27 28 27 ZM222 294 q22 -1 24 -23 q-2 -8 -4 -19 q-36 -124 -75 -206 q-37 -77 -74 -127 q-8 -3 -19 -4 q-20 4 -24 24 q0 9 8 19 q46 66 80 142 q28 56 65 178 q4 14 19 16 ZM878 650 q22 -1 24 -24 q-2 -22 -24 -23 l-238 0 l0 -196 l285 0 q22 -1 24 -23 q-2 -22 -24 -24 l-320 0 l-195 -386 q290 5 425 71 q-42 66 -82 108 q-7 13 -7 20 q2 21 23 23 q12 0 23 -11 q65 -68 157 -235 q4 -12 4 -19 q-3 -17 -28 -20 q-11 0 -19 12 q-23 44 -44 79 q-145 -79 -491 -79 q-35 0 -36 27 q1 18 19 22 l196 388 l-254 0 q-22 2 -23 24 q1 22 23 23 l293 0 l0 196 l-226 0 q-23 1 -24 23 q1 23 24 24 l226 0 l0 148 q1 22 24 23 q26 -1 27 -23 l0 -148 l238 0 Z" /><glyph glyph-name="" unicode="&#x8fd4;" d="M421 536 l0 -15 q0 -125 -22 -233 q-25 -108 -91 -213 q-9 -11 -23 -11 q-22 2 -24 23 q0 6 4 16 q70 121 86 199 q24 98 24 219 l0 148 q0 94 93 94 q240 0 434 35 q22 0 23 -23 q-2 -22 -23 -24 q-156 -25 -434 -35 q-47 0 -47 -47 l0 -86 l426 0 q63 0 63 -62 q0 -23 -24 -108 q-39 -108 -94 -173 q-5 -6 -8 -9 q76 -73 153 -160 q4 -9 4 -19 q-3 -17 -24 -20 q-12 0 -19 12 q-76 86 -148 153 q-44 -40 -102 -72 q-82 -50 -223 -95 q-8 -2 -15 -2 q-26 2 -28 28 q1 10 12 19 q138 39 214 84 q64 34 104 72 q-5 5 -9 9 q-91 79 -235 183 q-11 14 -11 23 q4 17 23 20 q10 0 20 -8 q143 -102 235 -181 q6 -5 11 -10 q58 66 91 156 q22 66 22 98 q0 15 -24 15 l-414 0 ZM105 798 q9 0 34 -15 q52 -31 125 -99 q17 -19 17 -27 q0 -27 -28 -27 q-9 0 -19 11 q-73 72 -139 110 q-17 11 -17 20 q0 27 27 27 ZM62 450 l98 0 q62 0 62 -62 l0 -285 q20 -58 75 -90 q71 -39 184 -39 l452 0 q25 -1 27 -28 q-2 -21 -27 -23 l-448 0 q-99 0 -168 22 q-73 27 -114 87 q-22 -38 -53 -62 q-30 -27 -75 -44 q-9 -3 -17 -3 q-20 4 -23 23 q1 23 19 28 q44 15 79 51 q38 36 38 78 l0 265 q0 35 -35 35 l-74 0 q-23 0 -23 24 q0 23 23 23 Z" /><glyph glyph-name="" unicode="&#x65b9;" d="M929 653 q22 -1 24 -23 q-2 -22 -24 -23 l-582 0 l0 -82 q0 -45 -3 -86 l421 0 q70 0 70 -71 q0 -139 -14 -242 q-17 -129 -54 -168 q-44 -47 -111 -47 q-97 0 -239 32 q-21 5 -23 23 q1 30 27 31 q15 0 35 -3 q143 -28 200 -28 q40 0 65 27 q24 21 42 115 q22 94 22 245 q0 39 -39 39 l-406 0 q-5 -55 -15 -105 q-21 -110 -69 -191 q-47 -86 -147 -181 q-14 -4 -24 -4 q-24 3 -27 28 q3 17 16 23 q88 84 134 163 q43 66 69 189 q19 96 19 211 l0 82 l-222 0 q-23 1 -24 23 q1 22 24 23 l422 0 q-22 76 -43 118 q-8 12 -8 19 q2 22 23 24 q12 0 24 -12 q21 -39 50 -137 q3 -8 3 -12 l384 0 Z" /><glyph glyph-name="" unicode="&#x98de;" d="M101 759 l488 0 q70 0 78 -78 q5 -101 13 -184 q7 -4 11 -8 q9 -5 16 -9 q1 2 3 5 q62 76 110 176 q8 24 31 24 q19 -1 20 -28 q0 -3 -3 -14 q-52 -116 -117 -192 q64 -45 139 -114 q4 -12 4 -19 q-3 -18 -27 -20 q-12 0 -20 12 q-81 80 -160 128 q11 -92 26 -158 q30 -143 82 -237 q35 -69 64 -69 q20 0 35 43 q14 43 20 133 q2 19 23 19 q25 -1 27 -19 q0 -37 -12 -91 q-11 -69 -38 -105 q-24 -35 -55 -35 q-46 0 -96 85 q-60 102 -98 262 q-33 134 -48 399 q-3 47 -47 47 l-469 0 q-22 3 -23 23 q1 22 23 24 Z" /><glyph glyph-name="" unicode="&#x5206;" d="M375 810 q20 -2 23 -24 q-1 -6 -4 -15 q-62 -154 -128 -246 q-67 -100 -165 -192 q-10 -3 -19 -4 q-17 7 -24 20 q0 14 12 23 q55 53 96 103 q64 75 97 135 q40 65 88 184 q6 15 24 16 ZM234 431 l512 0 q78 0 78 -78 l-4 -283 q-3 -89 -50 -124 q-49 -35 -145 -35 q-67 0 -180 32 q-14 7 -16 23 q2 25 24 27 q9 0 17 -3 q112 -28 155 -28 q79 0 111 30 q30 27 30 80 l7 269 q0 43 -43 43 l-293 0 q0 -103 -21 -183 q-15 -59 -51 -113 q-41 -59 -102 -98 q-67 -42 -154 -75 q-10 -3 -27 -4 q-20 5 -24 24 q1 24 20 31 q81 30 139 64 q55 34 85 67 q41 46 60 108 q24 74 24 179 l-152 0 q-23 2 -24 23 q1 22 24 24 ZM644 818 q16 0 23 -12 q40 -125 95 -201 q64 -105 179 -198 q15 -11 16 -27 q-4 -20 -20 -23 q-12 0 -23 3 q-41 31 -94 89 q-55 61 -106 141 q-47 78 -82 181 q-11 17 -11 27 q1 19 23 20 Z" /><glyph glyph-name="" unicode="&#x4efd;" d="M238 814 q24 -2 27 -24 q-20 -140 -56 -230 q-6 -18 -14 -36 l0 -601 q-2 -22 -28 -23 q-22 1 -23 23 l0 499 q-28 -47 -62 -93 q-12 -11 -28 -11 q-19 4 -23 23 q0 9 8 23 q72 81 115 188 q37 81 60 242 q2 19 24 20 ZM523 802 q21 -2 23 -24 q0 -5 -4 -15 q-47 -137 -97 -220 q-50 -88 -125 -171 q-10 -3 -20 -4 q-16 7 -23 20 q0 14 12 23 q41 47 72 91 q48 67 73 120 q29 59 66 164 q5 15 23 16 ZM406 403 l371 0 q78 0 78 -78 q-4 -219 -22 -317 q-9 -61 -39 -77 q-23 -20 -64 -20 q-56 0 -141 20 q-13 8 -15 23 q1 27 27 28 l6 0 q80 -20 123 -20 q20 0 33 11 q13 12 18 36 q10 37 14 114 q9 106 9 195 q0 39 -39 39 l-204 0 q1 -2 1 -4 q-6 -101 -21 -160 q-18 -80 -52 -136 q-30 -52 -72 -87 q-42 -38 -105 -61 q-4 -2 -8 -2 q-25 4 -27 32 q1 14 19 19 q66 28 101 62 q35 34 59 80 q25 47 38 114 q12 62 17 139 q0 3 1 4 l-106 0 q-22 4 -24 23 q2 19 24 23 ZM710 802 q17 0 24 -24 q35 -101 86 -191 q44 -82 133 -184 q4 -7 4 -15 q-3 -19 -20 -24 q-18 0 -27 12 q-88 94 -140 193 q-60 110 -83 206 l0 7 q1 18 23 20 Z" /><glyph glyph-name="" unicode="&#x4ed8;" d="M257 821 q25 -1 28 -23 q-23 -144 -62 -236 q-1 -2 -1 -3 l0 -636 q-1 -22 -27 -23 q-23 1 -24 23 l0 531 q-37 -64 -89 -129 q-12 -11 -28 -11 q-19 5 -23 23 q0 9 8 23 q80 84 127 194 q42 82 68 248 q1 18 23 19 ZM937 603 q22 -1 23 -24 q-1 -22 -23 -23 l-133 0 l0 -551 q0 -94 -94 -94 q-78 0 -203 32 q-9 14 -11 19 q1 30 23 31 q7 0 18 -1 q95 -28 170 -30 q46 0 46 47 l0 547 l-421 0 q-23 1 -24 23 q1 23 24 24 l421 0 l0 199 q1 22 24 23 q26 -1 27 -23 l0 -199 l133 0 ZM398 439 q12 0 23 -8 q53 -69 86 -121 q35 -58 75 -137 q3 -10 3 -20 q-2 -21 -23 -23 q-15 0 -23 12 q-37 74 -70 129 q-32 52 -83 121 q-11 16 -11 27 q4 16 23 20 Z" /><glyph glyph-name="" unicode="&#x6539;" d="M74 759 l261 0 q75 0 75 -74 l0 -203 q0 -75 -75 -75 l-171 0 q-39 0 -39 -39 l0 -379 q0 -11 11 -11 q93 48 234 160 q12 12 36 12 q17 -4 19 -24 q0 -9 -19 -29 q-117 -97 -204 -153 q-40 -23 -77 -25 q-51 0 -51 63 l0 398 q0 74 74 74 l172 0 q39 0 39 39 l0 180 q0 39 -39 39 l-246 0 q-28 0 -28 23 q0 24 28 24 ZM566 818 q25 -1 27 -24 q-2 -54 -7 -101 l343 0 q22 -1 24 -24 q-2 -22 -24 -23 l-74 0 q-3 -159 -27 -281 q-26 -128 -78 -212 q10 -14 20 -25 q62 -79 183 -174 q7 -9 7 -19 q-3 -20 -23 -24 q-16 0 -23 8 q-81 59 -137 122 q-32 34 -57 68 q-75 -99 -244 -190 q-20 -8 -27 -8 q-19 5 -24 20 q0 19 16 27 q149 73 225 161 q13 15 24 31 q-34 49 -58 99 q-46 88 -84 237 q-30 -98 -80 -172 q-10 -8 -23 -8 q-19 5 -24 23 q1 12 8 20 q59 87 87 202 q23 94 26 243 q3 23 24 24 ZM570 573 q39 -168 93 -277 q23 -52 55 -99 q30 56 50 126 q31 102 40 323 l-227 0 q-5 -40 -11 -73 Z" /><glyph glyph-name="" unicode="&#x5e72;" d="M863 759 q22 -1 23 -24 q-1 -21 -23 -23 l-336 0 l0 -328 l402 0 q22 -1 24 -24 q-2 -21 -24 -23 l-402 0 l0 -406 q-2 -26 -27 -28 q-27 2 -28 28 l0 406 l-402 0 q-23 2 -24 23 q1 23 24 24 l402 0 l0 328 l-347 0 q-23 2 -24 23 q1 23 24 24 l738 0 Z" /><glyph glyph-name="" unicode="&#x52fe;" d="M269 821 q24 -1 27 -23 q-14 -76 -36 -133 l564 0 q78 0 78 -78 l0 -412 q0 -121 -31 -184 q-42 -80 -164 -80 q-73 0 -211 28 q-12 4 -16 23 q2 26 27 27 q8 0 22 -2 q115 -25 178 -25 q87 0 113 58 q31 48 31 139 l0 416 q0 43 -43 43 l-568 0 q0 -1 -1 -2 q-39 -88 -130 -181 q-11 -12 -27 -12 q-20 5 -24 23 q0 9 8 24 q74 62 118 145 q38 62 62 187 q1 18 23 19 ZM406 521 q29 -1 31 -28 q0 -7 -8 -19 q-32 -79 -80 -158 q-50 -86 -135 -189 q291 5 426 64 q-44 67 -86 111 q-7 13 -8 19 q2 22 24 24 q12 0 23 -12 q65 -66 157 -230 q3 -13 3 -20 q-3 -17 -27 -19 q-12 0 -19 11 q-21 40 -40 73 q-151 -73 -507 -73 q-35 0 -35 28 q0 22 26 22 q94 109 140 192 q57 93 95 192 q8 11 20 12 Z" /><glyph glyph-name="" unicode="&#x597d;" d="M242 821 q27 -1 27 -27 q-19 -80 -37 -152 l111 0 q67 0 67 -67 q0 -30 -16 -145 q-27 -145 -65 -233 q-11 -27 -23 -48 q71 -62 123 -121 q4 -8 4 -19 q-3 -17 -27 -20 q-9 0 -20 8 q-45 54 -106 110 q-24 -36 -51 -66 q-56 -67 -152 -127 q-6 -3 -11 -3 q-26 2 -27 28 q1 10 11 19 q92 54 142 117 q28 32 49 66 q-54 46 -116 92 q-40 25 -40 57 q0 8 4 25 q44 139 80 280 l-107 0 q-22 1 -23 23 q1 22 23 24 l119 0 q20 80 37 160 q6 19 24 19 ZM265 183 q11 21 19 42 q38 93 60 219 q15 92 15 135 q0 16 -24 16 l-115 0 q-42 -162 -80 -283 q-4 -10 -4 -22 q0 -10 12 -18 q63 -45 117 -89 ZM476 759 l375 0 q63 0 63 -51 q-2 -16 -14 -32 q-50 -53 -197 -160 q-8 -7 -8 -15 q0 -4 10 -14 q66 -62 102 -119 l138 0 q22 -1 23 -23 q-1 -22 -23 -24 l-113 0 q27 -62 27 -128 q0 -141 -44 -209 q-45 -73 -140 -73 q-65 0 -175 32 q-9 9 -12 19 q1 28 23 31 l9 0 q100 -31 179 -31 q48 0 80 58 q29 54 29 173 q0 66 -30 128 l-341 0 q-22 2 -23 24 q1 22 23 23 l313 0 q-36 52 -98 107 q-13 14 -16 26 q0 23 13 35 q122 86 193 158 q5 2 5 10 q0 8 -12 8 l-359 0 q-22 2 -23 23 q1 22 23 24 Z" /><glyph glyph-name="" unicode="&#x53f7;" d="M257 782 l477 0 q86 0 86 -86 l0 -109 q0 -86 -86 -86 l-477 0 q-86 0 -86 86 l0 109 q0 86 86 86 ZM722 548 q47 0 47 47 l0 94 q0 46 -47 46 l-453 0 q-47 0 -47 -46 l0 -94 q0 -47 47 -47 l453 0 ZM921 400 q22 -1 24 -24 q-2 -22 -24 -23 l-583 0 l-46 -118 q0 -23 24 -23 l445 0 q82 0 82 -82 l-14 -100 q-5 -58 -38 -87 q-29 -32 -104 -32 q-173 0 -422 47 q-21 7 -23 24 q1 23 23 23 q249 -47 422 -47 q55 0 73 21 q17 16 20 49 l12 79 q0 58 -58 58 l-445 0 q-55 0 -55 55 q0 4 5 25 l44 108 l-205 0 q-23 1 -24 23 q1 23 24 24 l843 0 Z" /><glyph glyph-name="" unicode="&#x76d2;" d="M503 833 q24 0 42 -14 q83 -72 181 -124 q73 -37 223 -88 q13 -5 15 -20 q-2 -23 -27 -27 q-3 0 -17 2 q-139 48 -234 97 q-102 54 -169 120 q-7 3 -14 3 q-14 0 -21 -8 q-80 -73 -181 -123 q-76 -39 -229 -89 q-14 -2 -14 -2 q-19 1 -23 23 q1 17 11 24 q140 42 211 78 q103 49 189 125 q21 23 57 23 ZM648 642 q22 -1 23 -24 q-1 -22 -23 -23 l-297 0 q-22 1 -23 23 q1 23 23 24 l297 0 ZM238 528 l519 0 q71 0 71 -70 l0 -70 q0 -70 -71 -70 l-519 0 q-71 0 -71 70 l0 70 q0 70 71 70 ZM746 364 q31 0 31 32 l0 54 q0 32 -31 32 l-496 0 q-32 0 -32 -32 l0 -54 q0 -32 32 -32 l496 0 ZM199 247 l601 0 q75 0 75 -74 l0 -211 l66 0 q22 -1 23 -23 q-1 -22 -23 -24 l-883 0 q-22 2 -23 24 q1 22 23 23 l67 0 l0 211 q0 74 74 74 ZM175 -38 l184 0 l0 238 l-145 0 q-39 0 -39 -39 l0 -199 ZM410 -38 l183 0 l0 238 l-183 0 l0 -238 ZM644 -38 l180 0 l0 199 q0 39 -39 39 l-141 0 l0 -238 Z" /><glyph glyph-name="" unicode="&#x540e;" d="M855 802 q26 0 27 -27 q-2 -22 -23 -24 q-231 -43 -641 -58 q-47 0 -47 -47 l0 -82 l743 0 q22 -1 23 -24 q-1 -22 -23 -23 l-743 0 l0 -110 q0 -134 -18 -251 q-21 -116 -75 -229 q-11 -15 -28 -16 q-21 3 -23 24 q0 8 8 19 q54 132 67 217 q19 106 19 236 l0 243 q0 93 93 93 q355 0 641 59 ZM347 384 l469 0 q74 0 74 -74 l0 -297 q0 -74 -74 -74 l-469 0 q-74 0 -74 74 l0 297 q0 74 74 74 ZM796 -15 q43 0 43 43 l0 266 q0 43 -43 43 l-429 0 q-43 0 -43 -43 l0 -266 q0 -43 43 -43 l429 0 Z" /><glyph glyph-name="" unicode="&#x56de;" d="M179 778 l645 0 q86 0 86 -85 l0 -665 q0 -85 -86 -85 l-645 0 q-86 0 -86 85 l0 665 q0 85 86 85 ZM808 -11 q51 0 51 51 l0 641 q0 51 -51 51 l-613 0 q-51 0 -51 -51 l0 -641 q0 -51 51 -51 l613 0 ZM367 575 l265 0 q71 0 71 -70 l0 -277 q0 -71 -71 -71 l-265 0 q-71 0 -71 71 l0 277 q0 70 71 70 ZM613 204 q39 0 39 39 l0 246 q0 39 -39 39 l-227 0 q-39 0 -39 -39 l0 -246 q0 -39 39 -39 l227 0 Z" /><glyph glyph-name="" unicode="&#x4f1a;" d="M503 818 q9 0 22 -16 q90 -91 187 -159 q82 -61 233 -126 q17 -3 19 -24 q0 -28 -27 -31 q-108 36 -208 104 q-99 67 -210 183 q-11 10 -16 10 q-8 0 -22 -11 q-76 -103 -193 -195 q-111 -90 -226 -122 q-25 3 -27 31 q1 20 19 23 q114 36 205 105 q104 76 207 207 q18 21 37 21 ZM781 485 q22 0 23 -27 q-1 -22 -23 -23 l-551 0 q-22 1 -23 23 q1 27 23 27 l551 0 ZM910 310 q22 -1 23 -28 q-1 -22 -23 -23 l-458 0 l-207 -289 q342 4 503 53 q-6 9 -12 16 q-39 49 -100 111 q-11 16 -11 27 q4 16 23 19 q12 0 23 -7 q62 -62 102 -111 q42 -54 90 -128 q4 -9 4 -19 q-3 -21 -24 -24 q-15 0 -23 12 q-22 34 -42 63 q-173 -63 -583 -63 q-35 0 -35 27 q0 19 20 23 l209 290 l-300 0 q-22 1 -23 23 q1 27 23 28 l821 0 Z" /><glyph glyph-name="" unicode="&#x6d3b;" d="M109 794 q8 0 30 -17 q47 -34 111 -110 q15 -20 15 -29 q0 -28 -27 -28 q-9 0 -17 13 q-65 79 -124 122 q-15 12 -15 22 q0 27 27 27 ZM74 560 q8 0 31 -18 q47 -36 114 -116 q15 -21 15 -30 q0 -28 -27 -28 q-9 0 -18 13 q-66 84 -127 128 q-16 13 -16 23 q0 28 28 28 ZM222 294 q22 -1 24 -23 q-2 -8 -4 -19 q-36 -124 -75 -206 q-37 -77 -74 -127 q-8 -3 -19 -4 q-20 4 -24 24 q0 9 8 19 q46 66 80 142 q28 56 65 178 q4 14 19 16 ZM871 790 q24 -1 27 -27 q-3 -17 -23 -20 q-110 -18 -231 -30 l0 -177 l277 0 q22 -1 24 -23 q-2 -22 -24 -24 l-277 0 l0 -183 l176 0 q70 0 70 -71 l0 -226 q0 -70 -70 -70 l-391 0 q-70 0 -70 70 l0 226 q0 71 70 71 l164 0 l0 183 l-265 0 q-23 2 -24 24 q1 22 24 23 l265 0 l0 172 q-112 -10 -234 -15 q-24 2 -27 23 q1 20 23 23 q266 9 516 51 ZM800 -15 q39 0 39 40 l0 195 q0 39 -39 39 l-351 0 q-39 0 -39 -39 l0 -195 q0 -40 39 -40 l351 0 Z" /><glyph glyph-name="" unicode="&#x8d27;" d="M347 810 q25 -1 28 -24 l-3 -3 q-20 -48 -61 -99 q-11 -13 -22 -24 l0 -245 q-2 -26 -28 -27 q-26 1 -27 27 l0 200 q-7 -6 -13 -10 q-51 -36 -108 -61 q-5 -3 -16 -4 q-23 4 -27 24 q1 11 8 19 q49 22 86 43 q62 37 92 69 q38 40 68 95 q3 19 23 20 ZM558 814 q22 -1 24 -24 l0 -181 q36 11 67 23 q103 40 186 96 q11 15 28 15 q19 -2 23 -19 q0 -10 -4 -20 q-83 -63 -213 -114 q-44 -17 -87 -30 l0 -59 q0 -47 46 -47 l157 0 q45 0 70 14 q20 9 23 76 q0 23 28 24 q21 -2 23 -32 q0 -28 -7 -61 q-6 -35 -39 -50 q-38 -18 -98 -18 l-168 0 q-86 0 -86 86 l0 51 q-55 -16 -110 -27 q-15 -4 -23 -4 q-20 4 -23 23 q1 19 19 24 q75 16 137 34 l0 196 q1 23 27 24 ZM296 372 l414 0 q71 0 71 -70 l0 -231 q0 -23 -24 -23 q-27 0 -27 23 l0 207 q0 47 -47 47 l-359 0 q-47 0 -47 -47 l0 -207 q0 -23 -27 -23 q-24 0 -24 23 l0 231 q0 70 70 70 ZM500 286 q24 -1 27 -23 q-10 -128 -23 -167 q-19 -55 -60 -89 q-44 -37 -127 -61 q-79 -24 -196 -39 q-27 2 -28 28 q3 19 24 23 q81 10 148 27 q62 14 107 38 q37 19 59 49 q23 29 29 70 q10 50 16 121 q1 22 24 23 ZM550 75 q7 0 20 -4 q186 -43 332 -121 q10 -7 12 -23 q-2 -22 -24 -24 l-15 0 q-141 78 -325 125 q-22 3 -23 24 q2 21 23 23 Z" /><glyph glyph-name="" unicode="&#x673a;" d="M355 610 q22 0 23 -23 q-1 -22 -23 -23 l-102 0 l0 -24 q35 -104 84 -195 q20 -38 53 -86 q4 -10 4 -16 q-4 -19 -23 -23 q-14 0 -24 12 q-35 49 -62 111 q-17 37 -32 78 l0 -494 q-1 -22 -23 -24 q-26 2 -27 24 l0 543 q-15 -71 -34 -131 q-30 -106 -84 -209 q-11 -11 -23 -12 q-25 3 -27 24 q0 4 4 15 q50 90 88 196 q32 92 59 211 l-120 0 q-23 1 -24 23 q1 23 24 23 l137 0 l0 188 q1 22 27 23 q22 -1 23 -23 l0 -188 l102 0 ZM554 759 l149 0 q86 0 86 -86 l0 -664 q0 -39 39 -39 l15 0 q20 0 32 15 q13 13 13 42 l10 119 q1 27 23 27 q27 0 28 -27 l-12 -132 q-2 -42 -25 -67 q-28 -24 -61 -24 l-39 0 q-74 0 -74 78 l0 668 q0 43 -43 43 l-145 0 q-43 0 -43 -43 l0 -312 q0 -128 -23 -229 q-25 -107 -106 -213 q-11 -7 -23 -8 q-20 6 -23 24 q0 14 7 23 q75 99 95 186 q23 94 23 217 l0 316 q0 86 85 86 l12 0 Z" /><glyph glyph-name="" unicode="&#x8bb0;" d="M183 782 q12 0 24 -7 q43 -30 72 -53 q31 -26 64 -61 q4 -9 4 -19 q-3 -21 -23 -24 q-15 0 -24 12 q-30 32 -59 55 q-27 22 -70 50 q-11 17 -11 28 q4 16 23 19 ZM210 216 l0 227 q0 23 -23 23 l-113 0 q-24 0 -24 23 q0 24 24 24 l140 0 q47 0 47 -47 l0 -441 q0 -8 4 -8 l105 127 q8 9 24 9 q16 -3 20 -19 q0 -10 -13 -27 l-120 -151 q-17 -19 -35 -21 q-36 0 -36 47 l0 234 ZM437 763 l367 0 q86 0 86 -86 l0 -176 q0 -86 -86 -86 l-262 0 q-46 0 -46 -47 l0 -285 q0 -98 97 -98 l235 0 q30 0 47 30 q13 17 15 158 q0 22 27 23 q22 -1 24 -31 q0 -50 -5 -109 q-5 -64 -32 -91 q-29 -30 -76 -30 l-246 0 q-137 0 -137 136 l0 305 q0 86 86 86 l261 0 q43 0 43 43 l0 168 q0 43 -43 43 l-355 0 q-23 0 -23 23 q0 24 23 24 Z" /><glyph glyph-name="" unicode="&#x95f4;" d="M160 806 q11 0 23 -8 q36 -25 59 -44 q24 -21 50 -50 q4 -10 4 -19 q-2 -21 -23 -24 q-15 0 -23 12 q-24 26 -47 44 q-21 18 -55 42 q-12 16 -12 27 q5 16 24 20 ZM132 650 q22 -1 24 -24 l0 -695 q-2 -22 -24 -24 q-26 2 -27 24 l0 695 q1 23 27 24 ZM363 560 l277 0 q63 0 63 -63 l0 -351 q0 -63 -63 -63 l-277 0 q-63 0 -63 63 l0 351 q0 63 63 63 ZM632 130 q24 0 24 23 l0 149 l-309 0 l0 -149 q0 -23 24 -23 l261 0 ZM347 345 l309 0 l0 144 q0 24 -24 24 l-261 0 q-24 0 -24 -24 l0 -144 ZM386 759 l434 0 q78 0 78 -78 l0 -672 q0 -94 -94 -94 q-57 0 -148 24 q-13 6 -16 19 q1 24 20 27 q3 0 14 -2 q72 -21 122 -21 q55 0 55 55 l0 644 q0 51 -51 51 l-414 0 q-23 0 -23 23 q0 24 23 24 Z" /><glyph glyph-name="" unicode="&#x5c06;" d="M273 818 q22 -1 23 -24 l0 -867 q-1 -22 -23 -24 q-26 2 -27 24 l0 330 q-33 -55 -67 -96 q-52 -61 -101 -101 q-9 -4 -20 -4 q-20 4 -23 23 q0 10 7 20 q64 51 112 110 q41 43 92 136 l0 449 q1 23 27 24 ZM62 689 q10 0 20 -8 q45 -45 75 -80 q30 -39 65 -92 q4 -10 4 -20 q-3 -17 -23 -19 q-13 0 -20 12 q-32 49 -61 85 q-28 35 -72 79 q-11 13 -11 23 q4 16 23 20 ZM508 660 q-45 -55 -91 -89 q-9 -3 -15 -3 q-25 2 -27 23 q0 16 15 23 q83 61 138 143 q18 29 46 29 l304 0 q47 0 47 -47 q0 -14 -17 -50 q-38 -74 -105 -145 q-76 -79 -185 -121 q-101 -39 -232 -63 q-25 3 -27 24 q1 26 23 27 q145 27 210 53 q92 34 149 87 q72 68 114 140 q16 29 16 37 q0 11 -16 11 l-273 0 q-18 0 -29 -15 q-10 -16 -19 -29 q9 -3 16 -10 q38 -40 94 -141 l0 -19 q-3 -18 -27 -20 q-12 0 -20 12 q-44 90 -86 136 q-3 5 -3 7 ZM937 318 q22 -1 23 -24 q-1 -22 -23 -23 l-98 0 l0 -274 q0 -86 -113 -86 q-52 0 -133 39 q-10 15 -11 20 q1 34 23 35 q4 0 12 -1 q67 -36 121 -38 q47 0 47 47 l0 258 l-399 0 q-22 1 -23 23 q1 23 23 24 l399 0 l0 109 q1 22 27 23 q25 -1 27 -23 l0 -109 l98 0 ZM507 228 q10 0 20 -8 q39 -34 64 -60 q27 -29 57 -69 q4 -10 4 -20 q-3 -17 -24 -19 q-12 0 -19 12 q-27 36 -52 63 q-24 25 -61 58 q-12 13 -12 23 q4 16 23 20 Z" /><glyph glyph-name="" unicode="&#x4ea4;" d="M914 700 q22 -1 23 -23 q-1 -22 -23 -24 l-829 0 q-22 2 -23 24 q1 22 23 23 l421 0 q-23 53 -46 82 q-7 13 -7 20 q2 21 23 23 q12 0 24 -11 q22 -28 54 -98 q4 -11 4 -16 l356 0 ZM347 610 q17 0 20 -23 q-1 -3 -4 -16 q-27 -51 -57 -93 q5 -5 6 -12 q29 -96 83 -180 q57 -80 126 -137 q64 53 105 112 q67 90 104 213 q3 6 7 9 q-41 44 -81 77 q-8 12 -8 19 q2 22 23 24 q13 0 24 -12 q96 -79 234 -273 q4 -13 4 -20 q-3 -17 -27 -20 q-12 0 -20 12 q-57 86 -112 151 q-36 -108 -91 -187 q-51 -76 -123 -135 q4 -3 7 -5 q113 -80 374 -160 q18 -9 19 -27 q-1 -22 -23 -24 l-20 0 q-132 40 -239 92 q-99 46 -160 91 q-19 -15 -38 -27 q-88 -55 -205 -97 q-89 -36 -189 -60 q-5 -2 -16 -2 q-25 2 -28 27 q2 17 24 23 q114 25 207 62 q120 47 197 98 q6 4 11 8 q-80 73 -140 170 q-47 78 -68 146 q-5 -6 -9 -11 q-57 -72 -136 -137 q-12 -4 -19 -4 q-22 5 -24 24 q0 12 12 23 q81 69 131 129 q48 55 96 145 q9 7 23 7 Z" /><glyph glyph-name="" unicode="&#x63ed;" d="M308 626 q22 -1 24 -23 q-2 -22 -24 -24 l-82 0 l0 -212 q36 31 66 68 q8 7 16 8 q21 -1 24 -20 q-1 -19 -12 -31 q-42 -48 -94 -89 l0 -321 q0 -71 -82 -71 q-32 0 -82 24 q-10 14 -12 19 q1 30 24 31 l6 0 q36 -21 64 -23 q31 0 31 31 l0 272 q-39 -26 -82 -49 q-15 -3 -23 -4 q-19 3 -20 20 q1 22 20 27 q67 40 105 67 l0 253 l-101 0 q-23 2 -24 24 q1 22 24 23 l101 0 l0 160 q1 23 24 24 q26 -1 27 -24 l0 -160 l82 0 ZM445 790 l379 0 q70 0 70 -70 l0 -199 q0 -71 -70 -71 l-305 0 q0 -6 -4 -15 q-15 -30 -31 -55 l371 0 q78 0 78 -78 q0 -117 -10 -206 q-10 -111 -34 -143 q-27 -42 -69 -42 q-66 0 -160 28 q-22 5 -24 23 q2 26 28 27 q9 0 22 -2 q95 -25 134 -25 q19 0 31 24 q12 17 21 97 q10 78 10 203 q0 47 -47 47 l-383 0 q-14 -20 -28 -35 q-6 -7 -11 -12 q1 -6 1 -11 l0 -176 q0 -39 39 -39 l293 0 q27 0 27 -24 q0 -23 -27 -23 l-305 0 q-78 0 -78 78 l0 146 q-26 -22 -55 -44 q-10 -4 -19 -4 q-17 6 -24 19 q0 15 12 24 q38 28 67 55 q44 40 67 72 q25 34 57 91 l-23 0 q-70 0 -70 71 l0 199 q0 70 70 70 ZM804 497 q39 0 39 39 l0 63 l-418 0 l0 -63 q0 -39 39 -39 l340 0 ZM425 642 l418 0 l0 62 q0 39 -39 39 l-340 0 q-39 0 -39 -39 l0 -62 ZM632 321 q26 -1 28 -23 q-9 -37 -21 -64 q86 -33 153 -92 q11 -7 12 -20 q-1 -26 -23 -27 q-9 1 -16 4 q-64 58 -148 94 l-2 0 q-24 -34 -54 -56 q-30 -23 -65 -42 q-10 -4 -20 -4 q-22 5 -27 23 q0 17 11 24 q28 13 54 29 q28 17 55 48 q28 36 40 83 q2 22 23 23 Z" /><glyph glyph-name="" unicode="&#x89e3;" d="M234 790 l148 0 q51 0 51 -51 q0 -16 -21 -56 q-26 -44 -72 -96 l46 0 q74 0 74 -74 l0 -512 q0 -86 -85 -86 q-16 0 -40 12 q-16 6 -19 19 q1 27 23 32 q1 0 4 -1 q16 -11 28 -11 q39 0 39 39 l0 148 l-106 0 l0 -191 q-1 -22 -23 -23 q-27 1 -28 23 l0 191 l-108 0 q-4 -39 -11 -82 q-17 -82 -41 -148 q-6 -15 -27 -16 q-23 2 -24 28 q35 106 45 170 q14 101 14 170 l0 238 q0 74 74 74 l101 0 q62 65 90 111 q16 29 16 34 q0 11 -19 11 l-121 0 q-26 0 -38 -20 q-33 -57 -119 -128 q-9 -7 -19 -8 q-25 5 -27 23 q0 15 7 20 q71 50 120 126 q24 34 68 34 ZM149 200 l104 0 l0 149 l-101 0 l0 -74 q0 -36 -3 -75 ZM304 349 l0 -149 l106 0 l0 149 l-106 0 ZM152 396 l101 0 l0 144 l-62 0 q-39 0 -39 -39 l0 -105 ZM304 540 l0 -144 l106 0 l0 105 q0 39 -39 39 l-67 0 ZM539 790 l320 0 q70 0 70 -70 q-4 -116 -20 -168 q-8 -32 -35 -41 q-21 -10 -58 -10 q-30 0 -74 20 q-14 8 -16 23 q1 26 27 27 l3 0 q39 -19 60 -19 q17 0 28 5 q11 5 15 15 q8 16 12 49 q7 45 7 83 q0 39 -39 39 l-133 0 q-11 -82 -41 -133 q-39 -67 -115 -117 q-10 -7 -23 -8 q-19 5 -24 24 q1 12 8 19 q75 45 111 103 q27 44 33 112 l-116 0 q-22 5 -24 24 q2 19 24 23 ZM582 446 q21 -1 23 -23 q0 -3 -1 -10 q-5 -27 -10 -49 l132 0 l0 90 q1 23 27 24 q22 -1 24 -24 l0 -90 l140 0 q22 -1 24 -23 q-2 -22 -24 -23 l-140 0 l0 -172 l168 0 q22 -1 23 -24 q-1 -22 -23 -23 l-168 0 l0 -180 q-2 -22 -24 -23 q-26 1 -27 23 l0 180 l-207 0 q-22 1 -23 23 q1 23 23 24 l207 0 l0 172 l-145 0 q-2 -6 -4 -11 q-14 -41 -50 -103 q-11 -11 -24 -11 q-21 2 -23 23 q0 7 4 16 q30 47 48 91 q17 40 26 100 q3 22 24 23 Z" /><glyph glyph-name="" unicode="&#x91d1;" d="M507 814 q24 0 41 -16 q82 -84 178 -144 q72 -43 219 -102 q13 -6 15 -24 q-2 -22 -27 -27 q-3 0 -17 3 q-136 56 -229 112 q-100 62 -167 139 q-6 4 -13 4 q-14 0 -21 -10 q-79 -84 -179 -143 q-76 -44 -227 -102 q-14 -3 -14 -3 q-23 2 -27 27 q1 18 11 24 q139 49 211 90 q103 57 189 145 q21 27 57 27 ZM730 564 q22 -1 23 -28 q-1 -22 -23 -23 l-203 0 l0 -172 l328 0 q22 -1 23 -27 q-1 -22 -23 -24 l-328 0 l0 -297 l390 0 q22 -1 24 -23 q-2 -22 -24 -24 l-835 0 q-23 2 -24 24 q1 22 24 23 l394 0 l0 297 l-332 0 q-22 2 -23 24 q1 26 23 27 l332 0 l0 172 l-207 0 q-22 1 -23 23 q1 27 23 28 l461 0 ZM207 220 q12 0 23 -12 q42 -36 102 -125 q3 -12 3 -19 q-2 -17 -27 -20 q-12 0 -19 12 q-50 79 -98 121 q-7 13 -8 19 q2 22 24 24 ZM808 232 q19 -1 20 -24 q0 -2 -3 -11 q-45 -87 -103 -145 q-10 -8 -19 -8 q-22 3 -24 24 q1 4 8 15 q53 56 94 129 q7 20 27 20 Z" /><glyph glyph-name="" unicode="&#x5c3d;" d="M578 743 l-352 0 q-43 0 -43 -43 l0 -121 l621 0 q43 0 43 43 l0 78 q0 43 -43 43 l-226 0 ZM183 532 l0 -230 q0 -90 -30 -206 q-28 -86 -68 -153 q-5 -16 -27 -16 q-22 2 -23 27 q57 109 74 174 q23 105 23 174 l0 410 q0 78 78 78 l610 0 q78 0 78 -78 l0 -102 q0 -78 -78 -78 l-118 0 q15 -77 41 -147 q31 -76 78 -136 q35 -53 128 -135 q10 -7 11 -23 q-2 -24 -23 -27 q-10 0 -23 7 q-101 95 -141 154 q-44 59 -72 140 q-27 70 -43 167 l-475 0 ZM277 353 q6 0 19 -4 q213 -29 379 -82 q11 -8 12 -24 q-1 -22 -23 -23 l-16 0 q-161 54 -371 86 q-22 3 -24 23 q2 22 24 24 ZM234 122 q6 0 19 -4 q330 -55 586 -156 q11 -8 12 -23 q-1 -22 -23 -24 l-16 0 q-251 100 -578 160 q-22 3 -24 24 q2 21 24 23 Z" /><glyph glyph-name="" unicode="&#x53ef;" d="M929 755 q22 -1 24 -23 q-2 -22 -24 -24 l-86 0 l0 -668 q0 -129 -129 -129 q-91 0 -238 39 q-10 15 -12 20 q1 34 24 35 q8 0 20 -1 q114 -36 202 -38 q79 0 79 78 l0 664 l-719 0 q-23 2 -24 24 q1 22 24 23 l859 0 ZM214 540 l297 0 q82 0 82 -82 l0 -215 q0 -82 -82 -82 l-297 0 q-82 0 -82 82 l0 215 q0 82 82 82 ZM500 208 q42 0 42 43 l0 199 q0 43 -42 43 l-274 0 q-43 0 -43 -43 l0 -199 q0 -43 43 -43 l274 0 Z" /><glyph glyph-name="" unicode="&#x88e4;" d="M74 681 l82 0 q-13 55 -24 86 q-7 12 -7 19 q1 25 23 28 q14 0 27 -12 q13 -30 32 -106 q2 -9 2 -15 l72 0 q58 0 58 -47 q0 -13 -15 -54 q-34 -86 -89 -172 q-5 -9 -10 -15 q4 -4 5 -5 q12 -10 23 -21 l0 1 q41 34 75 78 q9 8 23 8 q16 -2 20 -19 q-1 -12 -8 -20 q-34 -44 -78 -78 q-3 -2 -3 -2 q36 -42 77 -100 q4 -12 4 -19 q-3 -17 -28 -20 q-11 0 -19 12 q-48 73 -94 120 l0 -401 q-1 -22 -27 -24 q-23 2 -24 24 l0 393 q-42 -54 -93 -108 q-7 -7 -16 -8 q-20 4 -23 20 q0 4 7 19 q59 60 110 135 q69 97 103 185 q22 49 22 55 q0 16 -28 16 l-179 0 q-23 1 -24 23 q1 23 24 24 ZM929 724 q21 -2 24 -24 q-3 -21 -24 -23 l-429 0 q-47 0 -47 -47 l0 -324 q0 -96 -23 -221 q-21 -90 -52 -162 q-5 -15 -27 -16 q-22 2 -23 28 q44 116 57 185 q17 111 17 186 l0 340 q0 78 78 78 l172 0 q-12 30 -24 47 q-7 12 -7 19 q2 25 23 28 q14 0 27 -12 q15 -20 36 -71 q2 -8 2 -11 l220 0 ZM671 661 q25 -2 28 -23 q0 -20 -8 -31 q-9 -31 -18 -59 l244 0 q22 -1 24 -27 q-2 -22 -24 -24 l-261 0 q-13 -38 -26 -72 q-23 -60 -53 -123 l130 0 l0 129 q1 22 27 23 q22 -1 23 -23 l0 -129 l149 0 q22 -1 23 -27 q-1 -22 -23 -24 l-149 0 l0 -113 l172 0 q22 -1 24 -28 q-2 -21 -24 -23 l-172 0 l0 -164 q-1 -22 -23 -23 q-26 1 -27 23 l0 164 l-219 0 q-23 2 -24 23 q1 27 24 28 l219 0 l0 113 l-176 0 q-23 2 -24 24 l0 3 q1 19 16 28 q36 71 68 163 q5 13 10 28 l-82 0 q-22 2 -23 24 q1 26 23 27 l98 0 q14 46 31 105 q6 8 23 8 Z" /><glyph glyph-name="" unicode="&#x5feb;" d="M101 634 q25 -1 27 -24 q-5 -140 -17 -227 q-11 -73 -29 -132 q-9 -23 -32 -23 q-17 4 -19 23 q0 7 4 20 q21 69 30 145 q14 86 17 198 q1 18 19 20 ZM203 825 q22 -1 23 -23 l0 -879 q-1 -22 -23 -23 q-23 1 -24 23 l0 879 q1 22 24 23 ZM281 634 q13 0 19 -16 q27 -66 37 -134 q6 -40 6 -53 q-1 -26 -23 -28 q-23 3 -24 28 q-5 58 -13 93 q-7 33 -22 75 q-4 8 -4 11 q2 22 24 24 ZM390 661 l168 0 l0 137 q2 22 24 23 q22 -1 23 -23 l0 -137 l180 0 q86 0 86 -86 l0 -226 l70 0 q22 -1 23 -24 q-1 -22 -23 -23 l-317 0 q17 -60 45 -105 q35 -58 93 -114 q51 -53 171 -125 q15 -6 16 -23 q-4 -20 -24 -24 q-3 0 -23 4 q-103 61 -173 132 q-58 58 -93 119 q-27 46 -45 100 q-5 -29 -13 -55 q-24 -87 -82 -152 q-56 -68 -176 -144 q-12 -4 -20 -4 q-25 3 -27 28 q3 14 16 19 q106 66 162 128 q52 52 84 148 q10 34 16 68 l-223 0 q-23 1 -24 23 q1 23 24 24 l228 0 q2 26 2 51 l0 214 l-168 0 q-23 0 -23 24 q0 23 23 23 ZM605 614 l0 -214 q0 -26 -2 -51 l217 0 l0 226 q0 39 -39 39 l-176 0 Z" /><glyph glyph-name="" unicode="&#x6765;" d="M882 712 q22 -1 24 -23 q-2 -22 -24 -24 l-363 0 l0 -281 l410 0 q22 -1 24 -24 q-2 -21 -24 -23 l-394 0 q85 -102 179 -181 q83 -68 223 -143 q25 -8 27 -28 q-1 -26 -23 -27 q-9 0 -20 7 q-120 56 -222 137 q-88 71 -180 177 l0 -352 q-1 -22 -23 -24 q-27 2 -28 24 l0 358 q-61 -81 -143 -151 q-99 -87 -255 -172 q-11 -8 -16 -8 q-15 2 -23 24 q0 22 19 27 q160 94 249 173 q82 68 152 159 l-385 0 q-23 2 -24 23 q1 23 24 24 l402 0 l0 281 l-355 0 q-23 2 -24 24 q1 22 24 23 l355 0 l0 82 q1 23 28 24 q22 -1 23 -24 l0 -82 l363 0 ZM226 642 q12 0 24 -12 q35 -51 85 -180 l0 -19 q-2 -17 -27 -20 q-12 0 -19 12 q-40 116 -79 176 q-7 13 -7 19 q2 22 23 24 ZM781 642 q18 -1 19 -24 q0 -2 -3 -13 q-43 -112 -98 -186 q-10 -8 -20 -8 q-21 3 -23 24 q0 4 8 15 q50 75 89 172 q7 20 28 20 Z" /><glyph glyph-name="" unicode="&#x793c;" d="M97 669 l340 0 q55 0 55 -47 q0 -11 -25 -50 q-44 -72 -114 -142 q3 -1 6 -3 q52 -44 85 -78 q35 -38 75 -90 q4 -10 4 -20 q-3 -20 -23 -23 q-16 0 -24 12 q-37 48 -70 83 q-32 34 -82 77 l0 -457 q-2 -22 -24 -24 q-26 2 -27 24 l0 425 q-79 -68 -180 -136 q-8 -7 -19 -8 q-24 4 -28 23 q0 5 12 24 q95 60 176 132 q111 94 167 179 q36 48 36 52 l-340 0 q-22 2 -23 24 q1 22 23 23 ZM621 814 q22 -1 23 -24 l0 -765 q0 -51 51 -51 l97 0 q43 0 68 43 q19 23 22 222 q0 23 28 24 q21 -1 23 -31 q0 -66 -7 -144 q-6 -85 -39 -119 q-36 -42 -95 -42 l-97 0 q-102 0 -102 101 l0 762 q1 23 28 24 ZM257 821 q13 0 24 -11 q24 -26 58 -90 q4 -12 4 -20 q-3 -17 -27 -19 q-12 0 -20 12 q-27 56 -54 85 q-8 13 -8 20 q2 21 23 23 Z" /><glyph glyph-name="" unicode="&#x91cf;" d="M207 806 l585 0 q63 0 63 -63 l0 -125 q0 -62 -63 -62 l-585 0 q-63 0 -63 62 l0 125 q0 63 63 63 ZM781 599 q23 0 23 23 l0 35 l-609 0 l0 -35 q0 -23 23 -23 l563 0 ZM195 700 l609 0 l0 39 q0 24 -23 24 l-563 0 q-23 0 -23 -24 l0 -39 ZM921 501 q22 -1 24 -23 q-2 -22 -24 -24 l-843 0 q-23 2 -24 24 q1 22 24 23 l843 0 ZM222 403 l555 0 q70 0 70 -70 l0 -121 q0 -70 -70 -70 l-246 0 l0 -55 l332 0 q22 -1 23 -23 q-1 -22 -23 -24 l-332 0 l0 -70 l398 0 q22 -1 24 -24 q-2 -22 -24 -23 l-859 0 q-23 1 -24 23 q1 23 24 24 l410 0 l0 70 l-344 0 q-22 2 -23 24 q1 22 23 23 l344 0 l0 55 l-258 0 q-70 0 -70 70 l0 121 q0 70 70 70 ZM765 185 q27 0 27 27 l0 35 l-261 0 l0 -62 l234 0 ZM480 185 l0 62 l-273 0 l0 -35 q0 -27 27 -27 l246 0 ZM207 290 l273 0 l0 70 l-246 0 q-27 0 -27 -27 l0 -43 ZM531 360 l0 -70 l261 0 l0 43 q0 27 -27 27 l-234 0 Z" /><glyph glyph-name="" unicode="&#x4e86;" d="M187 775 l609 0 q63 0 63 -55 q-3 -19 -19 -37 q-67 -62 -267 -184 q-11 -8 -11 -17 q0 -5 11 -15 q79 -69 118 -132 q47 -78 47 -162 q0 -123 -62 -183 q-65 -63 -200 -63 q-91 0 -246 74 q-12 11 -16 24 q1 28 28 31 q4 0 12 -1 q139 -73 249 -73 q79 0 132 47 q48 45 48 144 q0 68 -35 133 q-35 70 -131 149 q-15 15 -17 27 q0 25 18 40 q167 99 264 181 q7 4 7 13 q0 8 -12 8 l-590 0 q-22 1 -23 23 q1 25 23 28 Z" /><glyph glyph-name="" unicode="&#x9886;" d="M273 806 q11 0 19 -18 q38 -90 83 -154 q33 -45 101 -109 q16 -7 20 -28 q-2 -26 -36 -31 q-1 0 -7 2 q-60 61 -101 122 q-44 67 -73 149 q-3 4 -6 4 q-6 0 -9 -10 q-35 -91 -80 -154 q-33 -48 -101 -111 q-5 -2 -5 -2 q-26 1 -32 31 q2 20 16 28 q64 52 97 96 q48 62 88 156 q9 29 26 29 ZM101 372 l309 0 q62 0 62 -62 q0 -15 -17 -58 q-25 -63 -64 -124 q-36 -54 -75 -89 q38 -34 74 -69 q12 -8 12 -24 q-5 -17 -24 -19 q-4 0 -19 4 q-106 105 -215 187 q-14 8 -16 24 q4 19 20 23 q8 0 19 -4 q59 -44 116 -93 q2 4 4 7 q38 35 64 77 q34 54 65 132 q5 16 5 22 q0 19 -19 19 l-301 0 q-23 0 -23 24 q0 23 23 23 ZM246 579 q12 0 23 -11 q22 -33 55 -114 q4 -12 4 -19 q-3 -17 -28 -20 q-11 0 -19 12 q-26 72 -51 109 q-7 13 -8 20 q2 21 24 23 ZM589 583 l64 0 q1 8 3 16 q16 52 29 125 l-185 0 q-23 1 -24 23 q1 23 24 24 l421 0 q22 -1 24 -24 q-2 -22 -24 -23 l-184 0 q0 -2 0 -3 q-12 -79 -29 -138 l135 0 q59 0 59 -58 l0 -411 q0 -27 -24 -27 q-27 0 -27 27 l0 371 q0 51 -51 51 l-168 0 q-50 0 -50 -51 l0 -367 q0 -27 -28 -27 q-23 0 -23 27 l0 407 q0 58 58 58 ZM710 482 q22 -1 24 -24 l0 -168 q0 -90 -19 -156 q-27 -84 -90 -142 q-46 -41 -106 -73 q-11 -8 -23 -8 q-20 4 -24 24 q0 11 8 19 q60 32 94 61 q59 47 89 118 q24 79 24 157 l0 168 q2 23 23 24 ZM761 122 q12 0 24 -12 q64 -42 156 -152 l0 -19 q-3 -17 -27 -20 q-12 0 -20 12 q-76 98 -148 148 q-8 13 -8 20 q2 21 23 23 Z" /><glyph glyph-name="" unicode="&#x5f55;" d="M164 790 l539 0 q78 0 78 -78 l0 -250 l148 0 q22 -1 24 -27 q-2 -22 -24 -24 l-379 0 l0 -66 q49 -79 113 -141 q3 3 4 4 q105 59 192 137 q9 12 23 12 q20 -3 24 -20 q-1 -14 -8 -23 q-86 -79 -199 -141 q-1 -1 -2 -1 q100 -83 244 -155 q8 -10 8 -24 q-5 -21 -24 -27 q-15 0 -27 8 q-187 106 -261 187 q-48 50 -87 112 l0 -264 q0 -98 -86 -98 q-60 0 -156 43 q-10 14 -12 20 q1 33 24 35 q4 0 11 -2 q65 -39 118 -41 q47 0 47 47 l0 398 l-411 0 q-22 2 -23 24 q1 26 23 27 l641 0 l0 109 l-531 0 q-23 2 -24 28 q0 22 24 23 l531 0 l0 74 q0 43 -43 43 l-519 0 q-24 0 -24 24 q0 27 24 27 ZM148 364 q9 0 33 -13 q51 -26 123 -85 q16 -16 16 -23 q0 -27 -28 -27 q-9 0 -19 10 q-71 61 -135 94 q-17 10 -17 17 q0 27 27 27 ZM402 208 q21 -2 23 -19 q0 -18 -8 -28 q-74 -56 -146 -98 q-74 -45 -182 -93 q-9 -4 -19 -4 q-21 4 -24 23 q1 16 12 24 q93 38 177 88 q51 29 147 99 q5 8 20 8 Z" /><glyph glyph-name="" unicode="&#x5988;" d="M488 790 l351 0 q55 0 55 -55 q0 -7 -8 -43 l-76 -316 l53 0 q78 0 78 -78 q0 -114 -15 -200 q-16 -108 -53 -139 q-42 -40 -108 -40 q-67 0 -164 35 q-21 6 -23 24 q1 26 27 27 q10 0 23 -3 q98 -32 137 -32 q39 0 63 23 q24 16 41 93 q21 76 21 196 q0 47 -47 47 l-289 0 q-54 0 -54 55 q0 17 70 289 q5 23 27 23 q28 0 28 -23 q-71 -257 -71 -273 q0 -24 24 -24 l179 0 l86 340 q0 23 -23 23 l-332 0 q-23 3 -24 24 q1 25 24 27 ZM781 196 q22 -1 23 -23 q-1 -22 -23 -23 l-364 0 q-22 1 -23 23 q1 22 23 23 l364 0 ZM246 821 q27 -1 27 -27 q-23 -96 -44 -180 l114 0 q71 0 71 -70 q0 -134 -39 -254 q-28 -88 -69 -152 q74 -67 127 -129 q4 -9 4 -20 q-3 -17 -27 -19 q-9 0 -20 8 q-48 60 -113 121 q-64 -87 -192 -168 q-13 -8 -19 -8 q-24 4 -27 23 q1 15 11 24 q34 22 69 49 q74 53 119 115 q-51 44 -109 89 q-40 26 -40 59 q0 9 4 25 q41 130 74 261 l-93 0 q-23 1 -24 23 q1 21 24 23 l104 0 q24 95 44 188 q6 19 24 19 ZM266 173 q41 62 66 146 q35 107 35 217 q0 32 -32 32 l-117 0 q-39 -149 -74 -263 q-4 -10 -4 -23 q0 -10 12 -19 q62 -46 114 -90 Z" /><glyph glyph-name="" unicode="&#x9ebb;" d="M917 716 q21 -2 24 -23 q-3 -21 -24 -24 l-738 0 q-39 0 -39 -39 l0 -336 q0 -93 -16 -214 q-16 -87 -39 -157 q-5 -15 -27 -16 q-22 2 -23 28 q32 112 42 179 q12 107 12 180 l0 340 q0 82 82 82 l324 0 q-10 42 -19 66 q-7 13 -8 20 q2 21 24 23 q12 0 23 -11 q11 -26 27 -90 q2 -5 2 -8 l373 0 ZM484 505 q22 -1 23 -23 q-1 -22 -23 -24 l-93 0 q30 -112 71 -211 q17 -43 45 -97 q4 -10 4 -16 q-4 -20 -23 -24 q-13 1 -24 12 q-29 56 -53 125 q-20 55 -36 120 l0 -444 q-2 -22 -24 -23 q-26 1 -27 23 l0 453 q-17 -81 -45 -164 q-33 -101 -84 -191 q-10 -8 -24 -8 q-19 5 -23 23 q0 11 8 24 q49 81 86 188 q33 99 51 210 l-86 0 q-23 2 -24 24 q1 22 24 23 l117 0 l0 121 q1 23 27 24 q22 -1 24 -24 l0 -121 l109 0 ZM886 505 q22 -1 24 -23 q-2 -22 -24 -24 l-123 0 q45 -165 109 -307 q25 -61 69 -138 q3 -10 4 -16 q-4 -19 -24 -23 q-13 0 -23 11 q-45 78 -83 174 q-42 105 -73 231 l0 -467 q-2 -22 -24 -23 q-26 1 -27 23 l0 465 q-23 -100 -62 -201 q-44 -115 -110 -217 q-10 -7 -23 -8 q-19 5 -24 23 q0 11 8 24 q66 92 116 212 q44 112 67 237 l-89 0 q-23 2 -24 24 q1 22 24 23 l117 0 l0 125 q1 22 27 23 q22 -1 24 -23 l0 -125 l144 0 Z" /><glyph glyph-name="" unicode="&#x7801;" d="M386 771 q22 -1 24 -24 q-2 -22 -24 -23 l-129 0 q0 -5 -4 -18 q-26 -125 -61 -204 q-6 -15 -13 -30 q10 2 20 2 l109 0 q70 0 70 -71 l0 -394 q0 -70 -70 -70 l-109 0 q-71 0 -71 70 l0 370 q-23 -37 -50 -77 q-12 -11 -24 -12 q-21 3 -23 24 q0 7 4 15 q71 99 113 190 q40 82 62 205 l-128 0 q-23 1 -24 23 q1 23 24 24 l304 0 ZM292 -15 q40 0 40 40 l0 363 q0 39 -40 39 l-78 0 q-39 0 -39 -39 l0 -363 q0 -40 39 -40 l78 0 ZM472 790 l352 0 q54 0 54 -55 q0 -7 -7 -43 l-73 -316 l49 0 q78 0 78 -78 q0 -114 -13 -200 q-16 -108 -50 -139 q-39 -40 -101 -40 q-69 0 -168 27 q-21 6 -23 24 q1 26 27 27 q10 0 24 -2 q100 -25 140 -25 q35 0 57 23 q21 16 37 93 q20 76 20 196 q0 47 -47 47 l-286 0 q-54 0 -54 55 q0 17 66 289 q6 23 28 23 q27 0 27 -23 q-67 -257 -67 -273 q0 -24 24 -24 l179 0 l79 330 l4 10 q0 23 -24 23 l-332 0 q-22 3 -23 24 q1 25 23 27 ZM769 196 q22 -1 23 -23 q-1 -22 -23 -23 l-336 0 q-22 1 -23 23 q1 22 23 23 l336 0 Z" /><glyph glyph-name="" unicode="&#x79d8;" d="M359 794 q24 -1 27 -27 q-2 -17 -23 -20 q-57 -14 -117 -24 l0 -179 l113 0 q22 -1 23 -23 q-1 -22 -23 -24 l-113 0 l0 -29 q29 -80 71 -149 q17 -30 46 -68 q3 -10 4 -16 q-4 -19 -24 -23 q-13 1 -23 12 q-29 40 -53 89 q-11 22 -21 47 l0 -437 q-2 -22 -24 -23 q-26 1 -27 23 l0 453 q-10 -36 -22 -67 q-30 -89 -84 -175 q-11 -11 -23 -12 q-25 3 -27 24 q0 4 3 15 q53 75 92 162 q32 77 60 174 l-136 0 q-22 2 -23 24 q1 22 23 23 l137 0 l0 172 q-58 -8 -121 -12 q-24 3 -28 24 q2 20 24 23 q149 8 289 43 ZM453 614 q25 -1 27 -23 q-5 -169 -16 -274 q-10 -88 -27 -160 q-8 -23 -31 -23 q-17 4 -20 23 q0 8 4 20 q19 85 28 177 q12 104 15 241 q1 18 20 19 ZM566 693 q22 -1 23 -24 l0 -542 q63 59 106 135 q55 91 84 223 q26 120 37 270 q2 22 23 23 q21 -1 24 -23 q-12 -185 -40 -293 q-35 -147 -102 -249 q-56 -92 -132 -151 l0 -45 q0 -39 39 -39 l102 0 q34 0 53 30 q15 19 17 165 q0 22 24 23 q21 -1 23 -31 q0 -51 -6 -111 q-4 -65 -31 -92 q-31 -31 -80 -31 l-109 0 q-79 0 -79 78 l0 16 q-72 -50 -167 -83 q-8 -3 -16 -3 q-25 3 -27 27 q1 14 15 19 q123 47 195 101 l0 583 q1 23 24 24 ZM605 806 q12 0 23 -12 q49 -59 118 -207 l0 -16 q-3 -17 -24 -19 q-12 0 -19 12 q-56 133 -110 203 q-7 10 -8 15 q2 22 20 24 ZM863 407 q13 0 19 -15 q47 -115 64 -236 q11 -69 11 -92 q-2 -26 -24 -28 q-22 3 -23 28 q-11 106 -26 171 q-12 60 -41 137 q-4 9 -4 12 q2 21 24 23 Z" /><glyph glyph-name="" unicode="&#x6c11;" d="M207 778 l582 0 q78 0 78 -78 l0 -132 q0 -79 -78 -79 l-211 0 q6 -93 31 -190 q1 -3 2 -5 l299 0 q22 -1 23 -23 q-1 -22 -23 -24 l-284 0 q24 -64 61 -118 q28 -45 83 -96 q39 -34 75 -55 q16 -8 26 -8 q10 0 14 14 q21 73 25 150 q1 18 19 19 q27 -1 28 -23 q-6 -109 -30 -174 q-14 -41 -52 -41 q-25 0 -65 23 q-89 56 -143 130 q-53 72 -85 162 q-3 9 -5 17 l-398 0 l0 -272 q105 6 180 20 q83 14 192 52 q4 1 7 1 q25 -1 27 -23 q0 -21 -19 -28 q-118 -39 -209 -54 q-79 -15 -209 -20 q-23 1 -23 27 q0 7 3 11 l0 739 q0 78 79 78 ZM564 294 q-21 84 -33 195 l-352 0 l0 -195 l385 0 ZM179 536 l590 0 q47 0 47 47 l0 102 q0 47 -47 47 l-543 0 q-47 0 -47 -47 l0 -149 Z" /><glyph glyph-name="" unicode="&#x540d;" d="M398 786 l367 0 q59 0 59 -58 q0 -18 -18 -55 q-53 -104 -136 -182 q-100 -92 -212 -136 q-25 -12 -54 -22 l416 0 q74 0 74 -74 l0 -262 q0 -74 -74 -74 l-473 0 q-74 0 -74 74 l0 262 q0 23 7 37 q-92 -22 -210 -41 q-25 2 -28 23 q2 26 24 28 q236 36 379 98 q16 7 32 15 q-116 136 -227 207 q-2 3 -2 4 q-16 -12 -32 -23 q-52 -33 -116 -64 q-9 -3 -15 -3 q-24 3 -27 24 q4 19 24 23 q63 27 105 54 q67 38 113 91 q46 54 98 54 ZM285 660 q3 -2 4 -3 q96 -62 233 -213 q68 40 126 97 q77 78 110 149 q11 24 11 34 q0 15 -23 15 l-356 0 q-30 -1 -56 -32 q-23 -25 -49 -47 ZM800 -30 q43 0 43 43 l0 230 q0 43 -43 43 l-433 0 q-43 0 -43 -43 l0 -230 q0 -43 43 -43 l433 0 Z" /><glyph glyph-name="" unicode="&#x6bcd;" d="M281 786 l519 0 q71 0 71 -70 q-13 -143 -28 -270 l90 0 q22 -1 24 -23 q-2 -22 -24 -23 l-96 0 q-21 -160 -45 -293 l106 0 q21 -2 23 -24 q-2 -21 -23 -23 l-116 0 q-21 -86 -57 -126 q-37 -38 -93 -38 q-48 0 -132 19 q-23 5 -28 24 q3 29 28 31 q2 0 12 -2 q72 -18 116 -18 q49 0 74 41 q12 22 25 69 l-556 0 q-70 0 -70 70 q0 0 7 28 q39 132 65 242 l-107 0 q-23 1 -24 23 q1 22 24 23 l117 0 q29 128 47 286 q4 54 51 54 ZM738 107 q25 124 46 293 l-561 0 q-26 -115 -62 -232 q-5 -22 -5 -22 q0 -39 39 -39 l543 0 ZM234 446 l555 0 q15 118 27 254 q0 39 -39 39 l-477 0 q-20 0 -23 -27 q-15 -131 -43 -266 ZM460 693 q10 0 20 -8 q41 -38 67 -68 q28 -32 58 -77 q4 -10 4 -19 q-3 -17 -24 -20 q-12 0 -19 12 q-28 41 -53 71 q-25 28 -64 66 q-12 13 -12 23 q4 16 23 20 ZM421 349 q10 0 20 -8 q41 -39 67 -69 q28 -34 58 -79 q4 -10 4 -20 q-3 -17 -24 -20 q-12 0 -19 12 q-28 42 -53 73 q-25 30 -64 68 q-12 13 -12 23 q4 16 23 20 Z" /><glyph glyph-name="" unicode="&#x8010;" d="M574 755 q22 -1 23 -23 q-1 -22 -23 -24 l-232 0 l-52 -140 l190 0 q78 0 78 -79 l0 -500 q0 -78 -78 -78 q-36 0 -78 12 q-17 5 -20 23 q3 25 28 28 l5 -1 q33 -11 53 -11 q39 0 39 39 l0 481 q0 39 -39 39 l-58 0 l0 -516 q-2 -22 -24 -23 q-22 1 -23 23 l0 516 l-98 0 l0 -516 q-1 -22 -23 -23 q-23 1 -24 23 l0 516 l-58 0 q-39 0 -39 -39 l0 -547 q0 -24 -28 -24 q-23 0 -23 24 l0 554 q0 79 78 79 l87 0 l52 140 l-225 0 q-22 2 -23 24 q1 22 23 23 l512 0 ZM937 626 q22 -1 23 -23 q-1 -22 -23 -24 l-66 0 l0 -582 q0 -86 -90 -86 q-48 0 -125 24 q-10 14 -12 19 q1 30 23 31 l11 0 q57 -21 103 -23 q39 0 39 39 l0 578 l-231 0 q-22 2 -23 24 q1 22 23 23 l231 0 l0 152 q1 23 23 24 q26 -1 28 -24 l0 -152 l66 0 ZM632 489 q17 0 24 -15 q49 -113 67 -230 q11 -68 11 -91 q-2 -25 -27 -27 q-23 3 -24 27 q-11 103 -27 166 q-13 57 -43 131 q-4 11 -4 16 q2 21 23 23 Z" /><glyph glyph-name="" unicode="&#x7537;" d="M199 775 l601 0 q86 0 86 -86 l0 -223 q0 -86 -86 -86 l-601 0 q-86 0 -86 86 l0 223 q0 86 86 86 ZM789 427 q46 0 46 47 l0 82 l-312 0 l0 -129 l266 0 ZM472 427 l0 129 l-308 0 l0 -82 q0 -47 46 -47 l262 0 ZM164 603 l308 0 l0 125 l-262 0 q-46 0 -46 -47 l0 -78 ZM523 728 l0 -125 l312 0 l0 78 q0 47 -46 47 l-266 0 ZM109 282 l353 0 q6 27 10 55 q2 23 24 23 q21 -1 23 -23 q-3 -30 -7 -55 l320 0 q85 0 85 -86 q-5 -151 -30 -218 q-12 -42 -51 -53 q-32 -14 -86 -14 q-88 0 -219 43 q-14 9 -16 24 q1 26 27 27 l10 0 q128 -43 198 -43 q32 0 51 7 q22 7 30 22 q14 22 21 70 q15 65 15 120 q0 54 -55 54 l-310 0 q-8 -29 -17 -51 q-31 -76 -89 -130 q-51 -49 -123 -83 q-72 -36 -178 -58 q-7 -2 -13 -2 q-25 3 -28 28 q1 14 16 19 q122 27 188 60 q66 32 110 76 q48 45 72 110 q6 16 10 31 l-341 0 q-22 5 -24 24 q2 19 24 23 Z" /><glyph glyph-name="" unicode="&#x5185;" d="M179 638 l283 0 q6 68 6 144 q1 22 20 24 q26 0 27 -24 q0 -77 -5 -144 l325 0 q86 0 86 -86 l0 -543 q0 -94 -93 -94 q-78 0 -168 31 q-17 6 -20 24 q3 25 27 27 q2 0 13 -1 q89 -30 144 -30 q47 0 47 47 l0 535 q0 43 -43 43 l-301 0 q20 -86 51 -152 q32 -72 86 -137 q45 -53 148 -121 q17 -7 20 -28 q-3 -20 -24 -23 q-7 0 -19 9 q-93 55 -162 136 q-51 59 -89 133 q-25 54 -43 112 q-15 -74 -42 -143 q-35 -80 -86 -133 q-57 -58 -129 -106 q-9 -4 -24 -4 q-19 5 -23 23 q1 22 19 28 q68 44 116 93 q47 49 70 94 q35 68 51 156 q6 30 10 63 l-270 0 q-43 0 -43 -43 l0 -609 q0 -24 -27 -24 q-24 0 -24 24 l0 613 q0 86 86 86 Z" /><glyph glyph-name="" unicode="&#x80fd;" d="M253 821 q26 -1 28 -23 q-1 -7 -8 -20 q-20 -47 -50 -95 q-30 -49 -78 -107 q189 5 281 45 q-30 50 -59 83 q-8 11 -8 16 q1 21 19 23 q13 0 24 -11 q50 -55 121 -188 l0 -16 q-3 -17 -23 -19 q-12 0 -20 12 q-16 33 -31 61 q-106 -54 -352 -54 q-35 0 -35 24 q0 20 24 22 q57 66 86 115 q36 59 62 121 q7 11 19 11 ZM183 478 l211 0 q78 0 78 -78 l0 -395 q0 -94 -94 -94 q-51 0 -113 24 q-17 5 -19 23 q2 25 27 27 l8 0 q58 -23 94 -23 q46 0 46 47 l0 98 l-265 0 l0 -172 q0 -24 -28 -24 q-23 0 -23 24 l0 465 q0 78 78 78 ZM156 153 l265 0 l0 110 l-265 0 l0 -110 ZM156 310 l265 0 l0 82 q0 39 -39 39 l-187 0 q-39 0 -39 -39 l0 -82 ZM589 810 q22 -1 24 -24 l0 -152 q57 7 100 17 q43 9 79 23 q47 19 90 50 q10 4 16 4 q19 -3 23 -20 q0 -10 -11 -19 q-43 -33 -88 -52 q-47 -20 -105 -33 q-46 -11 -104 -17 l0 -113 q0 -39 39 -39 l168 0 q35 0 55 17 q17 10 19 92 q0 23 27 24 q26 -1 28 -28 q0 -33 -7 -72 q-5 -42 -35 -60 q-33 -20 -87 -20 l-188 0 q-70 0 -70 70 l0 328 q1 23 27 24 ZM585 349 q22 -1 24 -24 l0 -140 q59 6 104 18 q43 10 79 26 q47 20 90 53 q10 4 16 4 q19 -2 23 -19 q0 -11 -11 -20 q-43 -34 -88 -55 q-47 -22 -105 -36 q-47 -12 -108 -18 l0 -121 q0 -39 39 -39 l187 0 q29 0 44 17 q13 10 15 92 q0 23 27 23 q26 0 28 -27 q0 -33 -6 -72 q-4 -42 -31 -60 q-29 -20 -77 -20 l-199 0 q-78 0 -78 78 l0 316 q1 23 27 24 Z" /><glyph glyph-name="" unicode="&#x5c3f;" d="M574 728 l-356 0 q-51 0 -51 -51 l0 -90 l668 0 q32 0 32 31 l0 78 q0 32 -32 32 l-261 0 ZM167 540 l0 -144 q0 -114 -23 -262 q-22 -107 -55 -191 q-6 -16 -27 -16 q-22 1 -23 27 q46 138 60 221 q18 131 18 221 l0 285 q0 94 93 94 l637 0 q70 0 70 -71 l0 -94 q0 -70 -70 -70 l-680 0 ZM238 384 l179 0 q51 0 51 -51 q0 -14 -8 -44 q-15 -52 -43 -104 q-28 -52 -66 -96 q-44 -49 -125 -107 q-9 -4 -19 -4 q-27 1 -28 27 q3 14 16 20 q81 55 111 87 q44 45 68 89 q24 43 38 87 q5 18 5 30 q0 19 -19 19 l-160 0 q-23 2 -24 23 q1 22 24 24 ZM570 493 q26 -1 27 -23 l0 -103 q31 -55 66 -101 q1 1 1 1 q95 76 171 179 q10 12 24 12 q19 -2 23 -19 q0 -14 -7 -24 q-78 -103 -180 -183 q-1 -1 -2 -1 q20 -24 41 -45 q93 -86 226 -161 q8 -10 8 -24 q-5 -21 -23 -27 q-16 0 -28 8 q-172 109 -241 193 q-43 50 -79 113 l0 -299 q0 -78 -78 -78 q-50 0 -129 24 q-10 14 -12 19 q1 30 24 31 l9 0 q49 -21 89 -23 q46 0 46 47 l0 461 q1 22 24 23 Z" /><glyph glyph-name="" unicode="&#x60a8;" d="M246 821 q24 -1 27 -23 q-20 -97 -55 -160 l0 -371 q-1 -22 -23 -24 q-23 2 -24 24 l0 297 q-33 -43 -78 -86 q-11 -12 -27 -12 q-19 5 -24 23 q0 9 8 24 q71 54 113 126 q36 55 59 163 q2 18 24 19 ZM425 818 q26 -1 28 -24 q-3 -36 -8 -66 l414 0 q66 0 66 -82 q0 -18 -5 -41 q-5 -23 -14 -41 q-11 -16 -28 -16 q-20 4 -23 23 q0 1 1 4 q10 18 15 38 q4 18 4 33 q0 35 -24 35 l-417 0 q-6 -17 -12 -32 q-28 -67 -83 -117 q-10 -7 -23 -7 q-19 4 -24 23 q1 12 8 20 q53 44 78 103 q20 47 24 123 q2 23 23 24 ZM472 599 q25 -1 28 -24 q0 -4 -2 -11 q-13 -77 -30 -125 q-15 -49 -54 -121 q-13 -12 -28 -12 q-21 2 -23 23 q0 9 8 20 q32 56 50 108 q18 48 28 118 q2 23 23 24 ZM773 587 q17 0 23 -16 q52 -86 71 -176 q11 -52 11 -70 q-2 -25 -27 -27 q-22 3 -23 27 q-12 77 -29 124 q-14 43 -46 99 q-3 11 -3 16 q1 21 23 23 ZM160 196 q24 -1 27 -23 q0 -3 -1 -10 q-13 -66 -30 -108 q-15 -42 -55 -105 q-13 -11 -27 -11 q-22 2 -24 23 q1 9 8 20 q32 47 50 91 q18 40 28 100 q3 22 24 23 ZM308 239 q22 -1 24 -23 l0 -188 q0 -50 50 -50 l203 0 q59 0 91 15 q27 9 31 82 q0 23 27 24 q21 -2 23 -31 q0 -30 -8 -65 q-7 -38 -47 -54 q-44 -18 -117 -18 l-214 0 q-90 0 -90 90 l0 195 q1 22 27 23 ZM453 243 q12 0 23 -11 q50 -42 121 -145 q4 -12 4 -19 q-3 -18 -27 -20 q-12 0 -20 12 q-59 92 -117 140 q-7 13 -8 20 q2 21 24 23 ZM796 208 q13 0 24 -12 q52 -62 125 -214 q4 -13 4 -20 q-3 -17 -28 -19 q-11 0 -19 11 q-62 139 -121 211 q-8 13 -8 20 q2 21 23 23 ZM636 653 q26 -1 28 -23 l0 -246 q0 -137 -122 -137 q-27 0 -70 16 q-10 14 -12 19 q1 31 20 32 q1 0 5 -1 q27 -14 50 -15 q78 0 78 78 l0 254 q1 22 23 23 Z" /><glyph glyph-name="" unicode="&#x5973;" d="M933 575 q22 -1 24 -23 q-2 -22 -24 -24 l-160 0 q0 -132 -43 -236 q-32 -76 -106 -146 q-8 -7 -17 -14 q20 -8 36 -15 q135 -63 282 -143 q27 -12 28 -31 q-5 -19 -24 -24 q-10 0 -19 4 q-161 94 -327 165 q-11 5 -22 10 q-66 -45 -149 -78 q-139 -54 -319 -97 q-9 -3 -23 -4 q-19 5 -24 24 q1 21 20 27 q175 39 299 85 q87 34 142 66 q-122 51 -286 109 q-46 17 -46 56 q0 9 9 28 q63 113 110 214 l-228 0 q-23 2 -24 24 q1 22 24 23 l250 0 q53 117 86 219 q6 26 23 27 q32 0 32 -27 q0 -4 -8 -23 q-29 -89 -79 -196 l563 0 ZM556 153 q80 59 118 136 q52 100 52 239 l-378 0 q-48 -98 -109 -207 q-9 -19 -9 -27 q0 -20 27 -27 q177 -64 299 -114 Z" /><glyph glyph-name="" unicode="&#x54e6;" d="M132 732 l82 0 q63 0 63 -63 l0 -598 q0 -62 -63 -62 l-82 0 q-62 0 -62 62 l0 598 q0 63 62 63 ZM199 56 q31 0 31 31 l0 566 q0 32 -31 32 l-51 0 q-31 0 -31 -32 l0 -566 q0 -31 31 -31 l51 0 ZM601 782 q24 -1 27 -27 q-3 -21 -27 -23 q-36 -12 -74 -20 l0 -172 l162 0 q-6 111 -10 242 q2 27 24 28 q26 -1 27 -28 q2 -132 7 -242 l184 0 q22 -1 24 -23 q-2 -22 -24 -24 l-181 0 q8 -128 21 -228 q5 -48 13 -89 q38 89 77 231 q7 11 20 12 q24 -1 27 -23 q0 -6 -4 -16 q-57 -190 -104 -280 q13 -55 31 -98 q13 -32 22 -32 q12 0 19 16 q18 49 44 191 q3 25 23 27 q26 -1 28 -27 q-22 -156 -61 -232 q-18 -38 -53 -38 q-30 0 -50 38 q-21 42 -38 99 q-58 -83 -112 -121 q-18 -12 -22 -12 q-23 3 -24 28 q3 14 16 19 q82 68 126 148 q-13 62 -23 136 q-15 103 -24 251 l-165 0 l0 -195 q34 22 62 47 q8 7 16 8 q21 -1 23 -20 q0 -16 -11 -27 q-41 -34 -90 -63 l0 -246 q0 -86 -86 -86 q-38 0 -98 24 q-10 14 -11 19 q1 30 23 31 l7 0 q40 -21 71 -23 q43 0 43 43 l0 209 q-56 -29 -117 -53 q-13 -3 -20 -4 q-18 3 -19 20 q0 19 19 23 q90 40 137 66 l0 227 l-148 0 q-23 2 -24 24 q1 22 24 23 l148 0 l0 162 q-47 -9 -98 -13 q-23 3 -27 27 q3 20 27 23 q115 8 223 43 ZM796 759 q13 0 24 -12 q45 -29 109 -101 q4 -13 4 -20 q-3 -17 -27 -19 q-12 0 -20 11 q-53 65 -105 98 q-8 13 -8 19 q2 22 23 24 Z" /><glyph glyph-name="" unicode="&#x724c;" d="M128 778 q26 -1 28 -23 l0 -195 l101 0 l0 234 q1 23 24 24 q26 -1 27 -24 l0 -234 l55 0 q22 -1 23 -24 q-1 -22 -23 -23 l-207 0 l0 -153 q0 -12 -1 -23 l118 0 q70 0 70 -70 l0 -321 q0 -27 -23 -27 q-28 0 -28 27 l0 305 q0 39 -39 39 l-99 0 q-3 -77 -15 -155 q-14 -106 -57 -212 q-13 -12 -24 -12 q-23 4 -27 24 q0 13 8 23 q36 85 49 170 q17 104 17 232 l0 395 q1 22 23 23 ZM636 821 q26 -1 28 -23 q-1 -7 -8 -20 q-5 -14 -12 -29 q-4 -9 -9 -17 l212 0 q70 0 70 -71 l0 -242 q0 -70 -70 -70 l-198 0 q-18 -32 -46 -58 q-42 -43 -135 -91 q-11 -4 -19 -4 q-25 3 -28 28 q3 14 16 19 q81 39 122 76 q18 14 30 30 l-105 0 q-70 0 -70 70 l0 242 q0 71 70 71 l95 0 q11 17 17 30 q12 23 21 48 q7 11 19 11 ZM828 396 q39 0 39 39 l0 78 l-180 0 l0 -8 q0 -59 -18 -109 l159 0 ZM618 396 q3 6 5 11 q17 45 17 98 l0 8 l-176 0 l0 -78 q0 -39 39 -39 l115 0 ZM464 560 l176 0 l0 125 l-137 0 q-39 0 -39 -39 l0 -86 ZM687 685 l0 -125 l180 0 l0 86 q0 39 -39 39 l-141 0 ZM925 173 q22 -1 24 -23 q-2 -22 -24 -24 l-133 0 l0 -199 q-1 -22 -23 -24 q-26 2 -27 24 l0 199 l-328 0 q-23 2 -24 24 q1 22 24 23 l328 0 l0 141 q1 22 27 23 q22 -1 23 -23 l0 -141 l133 0 Z" /><glyph glyph-name="" unicode="&#x6d3e;" d="M113 786 q8 0 30 -17 q46 -34 111 -110 q15 -20 15 -29 q0 -27 -27 -27 q-9 0 -17 12 q-65 79 -124 122 q-16 12 -16 22 q0 27 28 27 ZM78 552 q8 0 31 -18 q47 -36 114 -115 q15 -22 15 -31 q0 -28 -28 -28 q-8 0 -17 14 q-67 83 -127 128 q-16 12 -16 23 q0 27 28 27 ZM222 306 q22 -1 24 -24 q-2 -8 -4 -19 q-36 -125 -75 -208 q-37 -78 -74 -128 q-8 -4 -19 -4 q-20 4 -24 23 q0 10 8 20 q46 66 80 144 q28 56 65 180 q4 13 19 16 ZM847 798 q23 0 24 -23 q-3 -22 -24 -24 q-153 -37 -426 -51 q-39 0 -39 -39 l0 -246 q0 -137 -23 -255 q-26 -118 -94 -233 q-10 -15 -27 -16 q-22 3 -24 24 q0 8 8 19 q70 134 86 220 q24 108 24 241 l0 254 q0 78 78 78 q242 0 437 51 ZM875 642 q20 0 23 -24 q-4 -21 -23 -23 q-98 -29 -204 -43 q18 -160 42 -254 q98 59 177 137 q9 11 24 11 q19 -2 23 -19 q0 -14 -8 -24 q-82 -81 -191 -144 q-7 -4 -12 -6 q5 -18 11 -31 q57 -153 196 -260 q15 -7 16 -27 q-3 -17 -24 -20 q-6 0 -14 6 q-130 93 -199 237 q-60 123 -87 388 q-26 -4 -51 -6 q-26 0 -37 -12 q-15 -15 -18 -39 l0 -507 q97 13 188 58 q24 -1 27 -27 q-3 -21 -27 -24 q-98 -46 -219 -62 q-24 3 -28 27 q2 10 8 16 l0 527 q2 36 26 64 q29 24 80 26 q143 10 301 55 Z" /><glyph glyph-name="" unicode="&#x7247;" d="M218 821 q26 -1 28 -23 l0 -234 l379 0 l0 234 q0 22 23 23 q26 -1 27 -23 l0 -234 l200 0 q21 -1 23 -24 q-2 -22 -23 -23 l-629 0 l0 -149 q0 -28 -1 -54 l473 0 q78 0 78 -79 l0 -312 q0 -23 -23 -23 q-27 0 -27 23 l0 305 q0 39 -39 39 l-466 0 q-4 -40 -11 -75 q-14 -82 -47 -142 q-33 -64 -101 -135 q-15 -4 -24 -4 q-25 3 -27 28 q3 17 15 23 q59 61 89 118 q30 47 47 136 q13 70 13 152 l0 430 q2 22 23 23 Z" /><glyph glyph-name="" unicode="&#x54c1;" d="M253 782 l489 0 q82 0 82 -82 l0 -156 q0 -82 -82 -82 l-489 0 q-82 0 -82 82 l0 156 q0 82 82 82 ZM734 509 q39 0 39 39 l0 148 q0 39 -39 39 l-473 0 q-39 0 -39 -39 l0 -148 q0 -39 39 -39 l473 0 ZM152 368 l226 0 q79 0 79 -78 l0 -273 q0 -78 -79 -78 l-226 0 q-78 0 -78 78 l0 273 q0 78 78 78 ZM367 -15 q39 0 39 40 l0 257 q0 39 -39 39 l-203 0 q-39 0 -39 -39 l0 -257 q0 -40 39 -40 l203 0 ZM613 368 l234 0 q78 0 78 -78 l0 -273 q0 -78 -78 -78 l-234 0 q-78 0 -78 78 l0 273 q0 78 78 78 ZM835 -15 q40 0 40 40 l0 257 q0 39 -40 39 l-210 0 q-40 0 -40 -39 l0 -257 q0 -40 40 -40 l210 0 Z" /><glyph glyph-name="" unicode="&#x671f;" d="M515 720 q22 -1 24 -24 q-2 -22 -24 -23 l-58 0 l0 -453 l62 0 q22 -1 23 -24 q-1 -22 -23 -23 l-453 0 q-23 1 -24 23 q1 23 24 24 l74 0 l0 453 l-62 0 q-23 1 -24 23 q1 23 24 24 l62 0 l0 66 q1 23 24 24 q22 -1 23 -24 l0 -66 l223 0 l0 66 q1 23 23 24 q22 -1 24 -24 l0 -66 l58 0 ZM187 220 l223 0 l0 125 l-223 0 l0 -125 ZM187 392 l223 0 l0 117 l-223 0 l0 -117 ZM187 556 l223 0 l0 117 l-223 0 l0 -117 ZM199 150 q18 -1 19 -28 q0 -3 -3 -14 q-52 -119 -122 -197 q-11 -8 -23 -8 q-22 3 -24 28 q1 4 8 15 q65 78 113 180 q9 24 32 24 ZM375 150 q12 0 23 -12 q30 -37 74 -129 q4 -12 4 -20 q-3 -17 -27 -19 q-12 0 -20 12 q-36 82 -70 125 q-7 12 -8 19 q2 22 24 24 ZM718 786 l129 0 q70 0 70 -70 l0 -719 q0 -86 -85 -86 q-38 0 -98 24 q-16 6 -20 19 q2 27 24 31 q2 0 9 -2 q45 -21 77 -21 q43 0 43 43 l0 242 l-235 0 q-3 -62 -12 -116 q-17 -106 -74 -212 q-11 -7 -23 -8 q-20 6 -23 24 q0 14 7 23 q50 99 63 186 q15 94 15 216 l0 356 q0 70 71 70 l62 0 ZM635 294 l232 0 l0 195 l-231 0 l0 -129 q0 -35 -1 -66 ZM636 536 l231 0 l0 164 q0 39 -39 39 l-153 0 q-39 0 -39 -39 l0 -164 Z" /><glyph glyph-name="" unicode="&#x5947;" d="M917 724 q22 -1 24 -24 q-2 -22 -24 -23 l-377 0 q27 -33 62 -57 q39 -28 107 -55 q57 -21 185 -48 q14 -6 16 -24 q-3 -21 -24 -23 q-6 0 -22 3 q-111 24 -194 58 q-62 26 -108 59 q-43 33 -68 69 q-30 -62 -78 -99 q-51 -37 -129 -61 q-68 -21 -174 -29 q-25 3 -28 31 q2 17 24 24 q101 5 159 23 q70 19 116 53 q41 29 65 76 l-367 0 q-23 1 -24 23 q1 23 24 24 l384 0 q10 39 14 86 q1 19 23 19 q21 0 24 -19 q-4 -48 -13 -86 l403 0 ZM937 439 q22 -1 23 -24 q-1 -22 -23 -23 l-137 0 l0 -371 q0 -110 -109 -110 q-59 0 -152 35 q-10 15 -12 20 q1 30 23 31 q6 0 14 -1 q75 -32 135 -34 q51 0 51 51 l0 379 l-692 0 q-22 1 -23 23 q1 23 23 24 l879 0 ZM222 314 l289 0 q71 0 71 -71 l0 -105 q0 -70 -71 -70 l-289 0 q-70 0 -70 70 l0 105 q0 71 70 71 ZM492 114 q39 0 39 39 l0 75 q0 39 -39 39 l-250 0 q-39 0 -39 -39 l0 -75 q0 -39 39 -39 l250 0 Z" /><glyph glyph-name="" unicode="&#x4eb2;" d="M878 716 q22 -1 24 -23 q-2 -22 -24 -24 l-149 0 l-65 -176 l257 0 q22 -1 24 -23 q-2 -22 -24 -24 l-394 0 l0 -148 l359 0 q22 -1 24 -23 q-2 -22 -24 -24 l-359 0 l0 -250 q0 -94 -106 -94 q-30 0 -78 20 q-10 14 -11 19 q1 30 23 32 q3 0 7 -1 q40 -17 71 -19 q43 0 43 43 l0 250 l-363 0 q-23 2 -24 24 q1 22 24 23 l363 0 l0 148 l-398 0 q-23 2 -24 24 q1 22 24 23 l257 0 l-69 176 l-145 0 q-23 2 -24 24 q1 22 24 23 l361 0 q-13 38 -25 59 q-8 12 -8 19 q2 25 23 27 q14 0 28 -11 q14 -23 35 -78 q3 -10 3 -16 l340 0 ZM386 493 l227 0 l65 176 l-361 0 l69 -176 ZM660 193 q14 0 50 -24 q78 -48 186 -154 q25 -29 25 -41 q0 -24 -23 -24 q-15 0 -29 17 q-108 112 -206 171 q-27 17 -27 31 q0 24 24 24 ZM312 200 q20 -3 23 -23 q0 -14 -11 -24 q-93 -109 -215 -195 q-13 -7 -24 -8 q-21 3 -23 24 q0 11 12 23 q116 81 211 192 q10 11 27 11 Z" /><glyph glyph-name="" unicode="&#x8bf7;" d="M160 782 q11 0 23 -7 q38 -30 63 -53 q25 -26 54 -61 q4 -9 4 -19 q-3 -21 -23 -24 q-15 0 -24 12 q-26 32 -50 55 q-23 22 -59 50 q-12 17 -12 28 q5 16 24 19 ZM187 216 l0 227 q0 23 -23 23 l-90 0 q-24 0 -24 23 q0 24 24 24 l117 0 q47 0 47 -47 l0 -418 q0 -8 4 -8 l73 87 q5 7 17 7 q16 -3 19 -20 q0 -7 -10 -21 l-91 -118 q-14 -15 -28 -17 q-35 0 -35 47 l0 211 ZM906 743 q22 -1 23 -23 q-1 -22 -23 -24 l-235 0 l0 -78 l200 0 q22 -1 23 -23 q-1 -22 -23 -24 l-200 0 l0 -82 l262 0 q22 -1 24 -23 q-2 -22 -24 -23 l-570 0 q-23 1 -24 23 q1 22 24 23 l258 0 l0 82 l-204 0 q-22 2 -23 24 q1 22 23 23 l204 0 l0 78 l-243 0 q-22 2 -23 24 q1 22 23 23 l243 0 l0 55 q1 22 23 23 q26 -1 27 -23 l0 -55 l235 0 ZM468 376 l352 0 q74 0 74 -74 l0 -313 q0 -86 -86 -86 q-52 0 -113 16 q-17 5 -20 24 q3 24 28 27 q1 0 8 -1 q58 -15 93 -15 q39 0 39 39 l0 86 l-398 0 l0 -148 q0 -24 -28 -24 q-23 0 -23 24 l0 371 q0 74 74 74 ZM445 126 l398 0 l0 78 l-398 0 l0 -78 ZM445 251 l398 0 l0 47 q0 31 -31 31 l-336 0 q-31 0 -31 -31 l0 -47 Z" /><glyph glyph-name="" unicode="&#x533a;" d="M878 775 q28 0 28 -28 q0 -23 -28 -23 l-679 0 q-55 0 -55 -55 l0 -621 q0 -55 55 -55 l707 0 q27 0 27 -27 q0 -23 -27 -23 l-727 0 q-86 0 -86 85 l0 661 q0 86 86 86 l699 0 ZM757 685 q25 -2 28 -24 q-1 -6 -4 -15 q-84 -161 -167 -272 q123 -114 261 -267 q3 -10 3 -20 q-3 -20 -23 -23 q-15 0 -23 11 q-133 149 -253 255 q-9 -11 -17 -20 q-115 -134 -281 -262 q-12 -3 -24 -4 q-16 6 -23 20 q0 17 12 27 q93 72 165 142 q78 72 129 131 q-109 94 -267 207 q-12 17 -12 28 q5 16 24 19 q11 0 23 -8 q158 -113 267 -203 q4 4 6 7 q67 92 153 251 q6 19 23 20 Z" /><glyph glyph-name="" unicode="&#x6743;" d="M394 630 q22 -1 23 -23 q-1 -22 -23 -24 l-125 0 l0 -24 q42 -94 101 -175 q24 -35 63 -78 q4 -10 4 -16 q-4 -19 -23 -23 q-14 0 -24 11 q-41 46 -75 103 q-25 40 -46 87 l0 -541 q-1 -22 -23 -24 q-27 2 -28 24 l0 558 q-18 -72 -39 -133 q-37 -109 -101 -214 q-12 -11 -24 -12 q-21 3 -23 24 q0 4 4 15 q59 92 103 201 q36 94 68 217 l-128 0 q-23 2 -24 24 q1 22 24 23 l140 0 l0 168 q1 22 28 23 q22 -1 23 -23 l0 -168 l125 0 ZM476 751 l383 0 q51 0 51 -51 q0 -36 -25 -171 q-40 -172 -96 -276 q-32 -59 -73 -107 q24 -33 50 -61 q70 -79 171 -123 q23 -4 23 -27 q-2 -21 -27 -24 q-7 0 -24 6 q-57 27 -129 90 q-52 45 -97 103 q-21 -22 -43 -41 q-85 -80 -230 -150 q-8 -4 -16 -4 q-30 2 -31 31 q1 11 15 20 q142 62 220 136 q29 25 54 51 q-20 29 -38 61 q-74 144 -114 361 l0 16 q0 19 23 19 q19 0 23 -19 q28 -182 92 -319 q22 -43 46 -81 q33 42 55 86 q60 107 94 254 q22 107 22 158 q0 15 -23 15 l-356 0 q-22 2 -23 24 q1 21 23 23 Z" /><glyph glyph-name="" unicode="&#x4eba;" d="M496 806 q24 -2 27 -24 l0 -238 q0 -63 43 -172 q37 -92 103 -176 q97 -115 280 -234 q11 -7 11 -19 q-1 -26 -23 -28 q-11 0 -21 7 q-107 68 -176 127 q-103 87 -162 177 q-58 91 -82 193 q-28 -94 -85 -189 q-48 -82 -122 -155 q-85 -85 -210 -153 q-11 -7 -17 -7 q-26 0 -27 20 q1 17 15 27 q172 100 261 214 q88 114 125 221 q36 84 36 147 l0 238 q2 22 24 24 Z" /><glyph glyph-name="" unicode="&#x65e5;" d="M238 771 l523 0 q86 0 86 -86 l0 -649 q0 -86 -86 -86 l-523 0 q-86 0 -86 86 l0 649 q0 86 86 86 ZM746 1 q46 0 46 47 l0 289 l-585 0 l0 -289 q0 -47 46 -47 l493 0 ZM207 388 l585 0 l0 285 q0 47 -46 47 l-493 0 q-46 0 -46 -47 l0 -285 Z" /><glyph glyph-name="" unicode="&#x5bb9;" d="M140 735 l341 0 q-11 26 -21 40 q-7 12 -7 19 q2 25 23 27 q14 0 27 -11 q13 -18 32 -63 q2 -8 3 -12 l321 0 q90 0 90 -97 q0 -31 -20 -70 q-11 -16 -31 -16 q-20 4 -23 23 q0 5 2 9 q10 15 16 34 q5 19 5 32 q0 39 -43 39 l-699 0 q-39 0 -39 -39 l0 -82 q0 -24 -28 -24 q-23 0 -23 24 l0 93 q0 74 74 74 ZM386 634 q21 -3 24 -20 q-1 -12 -4 -19 q-31 -32 -71 -60 q-31 -25 -75 -49 q-48 -28 -114 -54 q-6 -1 -6 -1 q-21 3 -23 27 q0 13 19 20 q61 24 95 45 q33 18 60 38 q43 32 76 65 q12 7 19 8 ZM593 630 q7 0 20 -4 q142 -50 254 -141 q10 -6 11 -19 q-1 -26 -23 -27 q-9 1 -16 4 q-106 86 -246 140 q-22 3 -23 24 q2 21 23 23 ZM503 505 q10 0 23 -13 q87 -71 180 -124 q80 -48 223 -97 q17 -4 20 -24 q0 -24 -28 -27 q-104 27 -199 79 q-95 53 -202 143 q-10 8 -17 8 q-6 0 -20 -8 q-73 -74 -186 -140 q-107 -64 -219 -86 q-25 3 -28 27 q2 20 20 24 q111 24 200 74 q98 55 199 149 q17 15 34 15 ZM273 243 l477 0 q85 0 85 -86 l0 -144 q0 -86 -85 -86 l-477 0 q-86 0 -86 86 l0 144 q0 86 86 86 ZM738 -26 q47 0 47 47 l0 129 q0 46 -47 46 l-453 0 q-47 0 -47 -46 l0 -129 q0 -47 47 -47 l453 0 Z" /><glyph glyph-name="" unicode="&#x5982;" d="M265 821 q27 -1 27 -27 q-21 -78 -41 -148 l155 0 q66 0 66 -67 q0 -31 -18 -147 q-31 -148 -75 -238 q-16 -34 -36 -64 q83 -72 145 -141 q4 -8 4 -19 q-3 -17 -28 -20 q-8 0 -19 8 q-56 66 -130 133 q-23 -30 -49 -55 q-65 -69 -176 -130 q-7 -3 -12 -3 q-26 2 -28 28 q1 10 12 19 q106 55 166 119 q27 27 49 55 q-63 54 -137 108 q-47 29 -47 66 q0 8 5 24 q49 137 89 277 l-125 0 q-22 1 -23 23 q1 22 23 24 l138 0 q23 78 42 156 q6 19 23 19 ZM304 164 q17 29 30 58 q45 95 70 223 q17 94 17 138 q0 16 -23 16 l-160 0 q-47 -160 -90 -280 q-4 -9 -4 -21 q0 -12 15 -21 q78 -57 145 -113 ZM625 700 l230 0 q70 0 70 -70 l0 -598 q0 -70 -70 -70 l-230 0 q-71 0 -71 70 l0 598 q0 70 71 70 ZM835 9 q40 0 40 39 l0 566 q0 39 -40 39 l-191 0 q-39 0 -39 -39 l0 -566 q0 -39 39 -39 l191 0 Z" /><glyph glyph-name="" unicode="&#x4e0a;" d="M460 802 q26 -1 28 -27 l0 -274 l363 0 q22 -1 24 -23 q-2 -26 -24 -28 l-363 0 l0 -449 l449 0 q22 -1 23 -27 q-1 -22 -23 -24 l-879 0 q-22 2 -23 24 q1 26 23 27 l375 0 l0 774 q1 26 27 27 Z" /><glyph glyph-name="" unicode="&#x7533;" d="M191 669 l281 0 l0 141 q1 22 28 23 q21 -1 23 -23 l0 -141 l285 0 q78 0 78 -78 l0 -371 q0 -78 -78 -78 l-285 0 l0 -231 q-2 -22 -23 -23 q-27 1 -28 23 l0 231 l-281 0 q-78 0 -78 78 l0 371 q0 78 78 78 ZM792 189 q43 0 43 43 l0 152 l-312 0 l0 -195 l269 0 ZM472 189 l0 195 l-308 0 l0 -152 q0 -43 43 -43 l265 0 ZM164 431 l308 0 l0 191 l-265 0 q-43 0 -43 -43 l0 -148 ZM523 622 l0 -191 l312 0 l0 148 q0 43 -43 43 l-269 0 Z" /><glyph glyph-name="" unicode="&#x614e;" d="M101 634 q25 -1 27 -24 q-4 -127 -14 -207 q-10 -66 -25 -121 q-8 -23 -31 -23 q-17 4 -19 23 q0 8 3 20 q18 63 26 132 q11 78 14 180 q1 18 19 20 ZM195 825 q22 -1 23 -23 l0 -879 q-1 -22 -23 -23 q-27 1 -28 23 l0 879 q1 22 28 23 ZM285 626 q13 0 19 -16 q27 -88 37 -182 q6 -53 6 -71 q-1 -26 -23 -28 q-23 3 -24 28 q-6 80 -13 130 q-7 45 -22 104 q-4 8 -4 12 q2 21 24 23 ZM898 751 q22 -1 23 -23 q-1 -22 -23 -24 l-231 0 l0 -70 l145 0 q70 0 70 -70 l0 -430 l63 0 q22 -1 23 -24 q-1 -21 -23 -23 l-621 0 q-23 2 -24 23 q1 23 24 24 l97 0 l0 430 q0 70 71 70 l125 0 l0 70 l-227 0 q-22 2 -23 24 q1 22 23 23 l227 0 l0 51 q1 22 23 23 q26 -1 27 -23 l0 -51 l231 0 ZM472 134 l360 0 l0 78 l-360 0 l0 -78 ZM472 259 l360 0 l0 78 l-360 0 l0 -78 ZM472 384 l360 0 l0 78 l-360 0 l0 -78 ZM472 509 l360 0 l0 39 q0 39 -40 39 l-281 0 q-39 0 -39 -39 l0 -39 ZM539 64 q24 -4 27 -24 q-1 -10 -4 -15 q-26 -24 -60 -45 q-25 -17 -62 -36 q-40 -21 -96 -40 q-5 -1 -5 -1 q-25 3 -27 28 q0 15 20 23 q49 17 77 31 q27 12 49 26 q35 22 61 45 q13 7 20 8 ZM750 64 q6 0 19 -4 q99 -38 176 -106 q10 -6 12 -19 q-2 -26 -24 -28 q-9 1 -16 4 q-72 66 -167 106 q-22 3 -24 23 q2 22 24 24 Z" /><glyph glyph-name="" unicode="&#x751f;" d="M246 720 q24 -2 27 -24 q-11 -67 -26 -117 l253 0 l0 207 q0 23 23 24 q26 -1 27 -24 l0 -207 l325 0 q21 -1 23 -23 q-2 -22 -23 -24 l-325 0 l0 -234 l305 0 q22 -1 23 -23 q-1 -22 -23 -24 l-305 0 l0 -258 l379 0 q22 -1 24 -23 q-2 -22 -24 -24 l-844 0 q-22 2 -23 24 q1 22 23 23 l415 0 l0 258 l-297 0 q-23 2 -24 24 q1 22 24 23 l297 0 l0 234 l-269 0 q-3 -7 -5 -11 q-32 -85 -105 -176 q-12 -11 -28 -12 q-19 5 -23 24 q0 8 8 23 q59 60 94 140 q31 60 50 180 q2 19 24 20 Z" /><glyph glyph-name="" unicode="&#x7701;" d="M257 771 q25 -2 28 -24 q-1 -6 -4 -15 q-31 -69 -64 -110 q-32 -44 -81 -86 q-11 -3 -23 -4 q-17 7 -24 20 q0 17 12 27 q26 22 45 42 q31 31 46 55 q19 27 42 75 q6 19 23 20 ZM734 771 q12 0 23 -8 q59 -52 97 -91 q39 -45 83 -104 q4 -10 4 -20 q-3 -21 -24 -23 q-15 0 -23 11 q-40 56 -78 97 q-36 40 -94 91 q-12 16 -12 27 q5 16 24 20 ZM753 638 q25 -1 28 -24 q0 -5 -4 -15 q-160 -106 -292 -151 q-50 -16 -99 -29 l387 0 q78 0 78 -78 l0 -336 q0 -78 -78 -78 l-481 0 q-78 0 -78 78 l0 336 q0 24 7 40 q-45 -9 -90 -15 q-47 -6 -57 -6 q-23 3 -24 28 q3 14 16 19 q250 37 375 79 q142 44 293 140 q7 10 19 12 ZM761 -26 q39 0 39 39 l0 58 l-535 0 l0 -58 q0 -39 39 -39 l457 0 ZM265 118 l535 0 l0 102 l-535 0 l0 -102 ZM265 267 l535 0 l0 66 q0 39 -39 39 l-457 0 q-39 0 -39 -39 l0 -66 ZM507 821 q22 -1 24 -23 l0 -234 q-2 -22 -24 -24 q-26 2 -27 24 l0 234 q1 22 27 23 Z" /><glyph glyph-name="" unicode="&#x65f6;" d="M160 724 l160 0 q70 0 70 -71 l0 -585 q0 -71 -70 -71 l-160 0 q-71 0 -71 71 l0 585 q0 71 71 71 ZM308 44 q31 0 31 31 l0 266 l-199 0 l0 -266 q0 -31 31 -31 l137 0 ZM140 388 l199 0 l0 258 q0 31 -31 31 l-137 0 q-31 0 -31 -31 l0 -258 ZM929 603 q22 -1 24 -24 q-2 -22 -24 -23 l-109 0 l0 -551 q0 -94 -78 -94 q-56 0 -145 32 q-10 14 -12 19 q1 30 24 31 q4 0 10 -1 q58 -28 103 -30 q47 0 47 47 l0 547 l-324 0 q-23 1 -24 23 q1 23 24 24 l324 0 l0 191 q1 23 23 24 q26 -1 28 -24 l0 -191 l109 0 ZM507 439 q12 0 24 -8 q39 -64 65 -113 q26 -55 56 -129 q4 -10 4 -20 q-3 -21 -24 -23 q-15 0 -23 11 q-27 70 -52 121 q-24 50 -61 114 q-12 16 -12 27 q4 16 23 20 Z" /><glyph glyph-name="" unicode="&#x8bc6;" d="M144 790 q12 0 23 -8 q44 -32 73 -58 q30 -28 64 -67 q4 -9 4 -19 q-3 -21 -23 -24 q-15 0 -24 12 q-31 36 -59 61 q-27 25 -70 56 q-11 16 -11 28 q4 16 23 19 ZM203 212 l0 223 q0 35 -36 35 l-93 0 q-24 0 -24 23 q0 24 24 24 l117 0 q62 0 62 -63 l0 -422 q0 -4 -1 -5 l86 88 q7 7 21 7 q16 -3 19 -19 q0 -8 -11 -22 l-105 -121 q-15 -16 -32 -17 q-27 0 -27 46 l0 223 ZM527 767 l293 0 q70 0 70 -71 l0 -328 q0 -70 -70 -70 l-293 0 q-70 0 -70 70 l0 328 q0 71 70 71 ZM800 345 q39 0 39 39 l0 297 q0 39 -39 39 l-254 0 q-39 0 -39 -39 l0 -297 q0 -39 39 -39 l254 0 ZM535 243 q24 -2 27 -23 q0 -6 -4 -16 q-32 -100 -65 -160 q-34 -64 -83 -125 q-12 -3 -24 -4 q-16 7 -23 20 q0 17 12 27 q26 33 46 64 q31 47 47 84 q19 41 43 114 q6 19 24 19 ZM781 243 q11 0 23 -8 q48 -71 78 -125 q32 -62 67 -144 q4 -10 4 -20 q-3 -21 -24 -23 q-15 0 -23 12 q-32 78 -62 135 q-29 55 -75 126 q-12 17 -12 28 q5 16 24 19 Z" /><glyph glyph-name="" unicode="&#x5e02;" d="M921 685 q22 -1 24 -24 q-2 -22 -24 -23 l-394 0 l0 -141 l258 0 q82 0 82 -82 l0 -324 q0 -102 -102 -102 q-48 0 -105 20 q-17 5 -20 23 q3 25 27 28 q1 0 8 -1 q51 -19 82 -19 q59 0 59 59 l0 308 q0 43 -43 43 l-246 0 l0 -523 q-2 -22 -24 -24 q-26 2 -27 24 l0 523 l-250 0 q-43 0 -43 -43 l0 -398 q0 -24 -27 -24 q-24 0 -24 24 l0 406 q0 82 82 82 l262 0 l0 141 l-398 0 q-23 1 -24 23 q1 23 24 24 l422 0 q-26 61 -51 93 q-8 13 -8 20 q2 21 23 23 q13 0 24 -11 q22 -28 54 -98 q4 -12 4 -19 q-1 -6 -3 -8 l378 0 Z" /><glyph glyph-name="" unicode="&#x8bd5;" d="M132 794 q12 0 24 -8 q36 -28 60 -51 q25 -24 53 -58 q4 -10 4 -20 q-3 -20 -23 -23 q-16 0 -24 12 q-25 30 -48 53 q-23 21 -57 48 q-12 16 -12 28 q4 16 23 19 ZM191 216 l0 223 q0 35 -35 35 l-82 0 q-24 0 -24 23 q0 24 24 24 l101 0 q63 0 63 -63 l0 -430 l74 69 q7 6 20 6 q16 -4 19 -20 q0 -7 -10 -18 l-97 -104 q-15 -13 -30 -15 q-23 0 -23 43 l0 227 ZM902 638 q22 -1 23 -24 q-1 -22 -23 -23 l-190 0 q5 -124 18 -217 q20 -152 55 -271 q26 -85 51 -132 q8 -13 19 -13 q10 0 18 21 q23 69 29 194 q3 23 23 23 q25 -1 28 -31 q-1 -48 -11 -98 q-17 -99 -37 -127 q-14 -30 -50 -33 q-25 0 -44 25 q-48 63 -84 199 q-39 140 -54 294 q-9 69 -13 166 l-305 0 q-22 1 -23 23 q1 23 23 24 l303 0 q-2 75 -2 164 q0 22 23 23 q27 -1 28 -23 q0 -88 3 -164 l192 0 ZM613 446 q22 -1 23 -23 q-1 -22 -23 -23 l-102 0 l0 -342 q58 13 132 44 q2 1 5 1 q21 -1 23 -20 q0 -20 -19 -27 q-86 -36 -152 -49 q-58 -13 -153 -18 q-22 2 -23 28 q2 17 23 19 q64 4 113 12 l0 352 l-105 0 q-22 1 -23 23 q1 22 23 23 l258 0 ZM781 802 q6 0 22 -11 q33 -22 80 -72 q11 -13 11 -19 q0 -27 -27 -27 q-7 0 -13 8 q-47 52 -89 79 q-12 8 -12 15 q0 27 28 27 Z" /><glyph glyph-name="" unicode="&#x6536;" d="M121 696 q25 -1 27 -23 l0 -546 q118 4 176 49 l0 626 q1 22 27 23 q22 -1 24 -23 l0 -883 q-2 -22 -24 -23 q-26 1 -27 23 l0 200 q-71 -40 -199 -40 q-35 0 -36 24 q1 11 8 17 l0 553 q1 22 24 23 ZM582 821 q24 -1 27 -23 q-10 -69 -25 -121 l333 0 q22 -1 24 -24 q-2 -22 -24 -23 l-58 0 q0 -158 -26 -282 q-19 -91 -63 -175 q-12 -22 -25 -40 q4 -5 8 -10 q62 -80 184 -177 q8 -9 8 -19 q-4 -20 -24 -24 q-15 0 -23 8 q-81 60 -138 124 q-25 27 -47 55 q-32 -37 -68 -66 q-82 -65 -188 -117 q-9 -3 -24 -4 q-19 5 -23 24 q1 21 19 27 q102 48 174 103 q47 38 78 75 q-39 56 -67 116 q-51 98 -94 275 q-28 -50 -67 -100 q-12 -11 -28 -12 q-19 5 -23 24 q0 9 8 23 q61 65 97 151 q31 64 51 193 q2 18 24 19 ZM550 582 q40 -176 94 -288 q28 -63 69 -119 q47 70 69 165 q30 121 30 290 l-243 0 q-4 -11 -8 -20 q-5 -15 -11 -28 Z" /><glyph glyph-name="" unicode="&#x624b;" d="M867 814 q24 -1 27 -28 q-2 -17 -23 -19 q-180 -27 -382 -43 q42 -84 66 -172 l347 0 q22 -1 23 -24 q-1 -22 -23 -23 l-336 0 q2 -7 3 -12 q17 -87 22 -179 l350 0 q22 -1 23 -24 q-1 -22 -23 -23 l-349 0 q1 -17 1 -32 q0 -92 -21 -168 q-24 -88 -69 -123 q-43 -34 -101 -37 q-47 0 -152 36 q-14 5 -16 19 q1 29 23 31 l8 0 q104 -35 133 -35 q47 0 70 27 q36 34 55 97 q19 65 19 153 q0 17 0 32 l-484 0 q-22 1 -23 23 q1 23 23 24 l482 0 q-5 98 -21 185 q-1 3 -1 6 l-413 0 q-22 1 -23 23 q1 23 23 24 l402 0 q-20 75 -57 157 q-4 5 -4 11 q-158 -13 -329 -20 q-24 3 -28 24 q2 20 24 23 q388 12 754 67 Z" /><glyph glyph-name="" unicode="&#x5c5e;" d="M597 743 l-402 0 q-39 0 -39 -39 l0 -47 l676 0 q31 0 31 32 l0 23 q0 31 -31 31 l-235 0 ZM156 614 l0 -207 q0 -122 -20 -280 q-20 -116 -47 -208 q-6 -15 -27 -16 q-22 2 -23 28 q39 149 50 238 q16 144 16 238 l0 301 q0 78 78 78 l676 0 q55 0 55 -54 l0 -63 q0 -55 -55 -55 l-703 0 ZM867 575 q24 -1 27 -27 q-3 -17 -23 -20 q-137 -15 -286 -26 l0 -59 l235 0 q62 0 62 -63 l0 -43 q0 -62 -62 -62 l-235 0 l0 -63 l266 0 q78 0 78 -78 l0 -145 q0 -78 -78 -78 q-79 0 -172 12 q-17 6 -19 23 q2 25 27 28 q1 0 12 -1 q87 -11 140 -11 q39 0 39 39 l0 125 q0 39 -39 39 l-254 0 l0 -99 q80 9 132 24 q-9 10 -18 20 q-12 14 -12 24 q4 16 23 19 q10 0 20 -7 q26 -29 43 -51 q18 -25 39 -59 q4 -9 4 -19 q-3 -17 -24 -20 q-12 0 -19 12 q-15 25 -27 44 q-123 -44 -395 -44 q-35 0 -35 23 q0 23 31 24 q106 0 188 6 l0 103 l-227 0 q-39 0 -39 -39 l0 -191 q0 -24 -27 -24 q-24 0 -24 24 l0 199 q0 78 78 78 l239 0 l0 63 l-223 0 q-62 0 -62 62 l0 43 q0 63 62 63 l223 0 l0 56 q-148 -9 -309 -14 q-20 3 -23 24 q2 20 23 23 q328 8 641 43 ZM812 318 q23 0 23 23 l0 35 q0 24 -23 24 l-227 0 l0 -82 l227 0 ZM535 318 l0 82 l-215 0 q-24 0 -24 -24 l0 -35 q0 -23 24 -23 l215 0 Z" /><glyph glyph-name="" unicode="&#x6570;" d="M113 798 q12 0 23 -12 q35 -28 86 -97 l0 -20 q-3 -17 -27 -19 q-12 0 -20 11 q-40 62 -78 94 q-7 13 -8 20 q2 21 24 23 ZM484 798 q19 -2 23 -20 q0 -13 -7 -23 q-42 -55 -94 -98 q-11 -7 -20 -7 q-21 2 -23 23 q0 9 12 20 q46 40 85 93 q9 12 24 12 ZM515 618 q22 -1 24 -23 q-2 -22 -24 -24 l-170 0 q31 -48 64 -79 q33 -34 87 -65 q11 -7 11 -24 q0 -23 -23 -23 q-8 0 -15 5 q-52 33 -89 72 q-33 33 -68 91 l0 -184 q-1 -22 -23 -23 q-23 1 -24 23 l0 174 q-30 -46 -64 -82 q-46 -52 -108 -99 q-13 -4 -19 -4 q-22 5 -24 23 q0 12 12 24 q66 47 107 90 q34 33 67 81 l-162 0 q-23 2 -24 24 q1 22 24 23 l191 0 l0 184 q1 22 24 23 q22 -1 23 -23 l0 -184 l203 0 ZM265 329 q20 -3 24 -23 q0 -8 -4 -16 q-16 -27 -31 -51 l195 0 q47 -3 47 -46 q-4 -16 -20 -50 q-34 -57 -87 -99 q47 -20 107 -51 q23 -7 23 -31 q-6 -19 -27 -23 q-7 0 -20 4 q-72 41 -131 67 q-96 -59 -251 -104 q-10 -3 -16 -3 q-24 3 -28 24 q2 20 16 27 q136 38 217 80 q-62 22 -140 45 q-22 8 -22 31 q0 7 5 21 q22 31 44 65 l-96 0 q-27 2 -28 20 q1 21 28 23 l124 0 q25 37 48 75 q8 13 23 15 ZM333 66 q63 44 92 94 q12 21 12 25 q0 11 -16 11 l-195 0 q-22 -33 -43 -63 q-4 -7 -4 -11 q0 -9 8 -12 q82 -21 146 -44 ZM656 833 q24 -1 27 -23 q-10 -102 -25 -176 l252 0 q22 -1 23 -24 q-1 -21 -23 -23 l-47 0 q-4 -145 -24 -257 q-23 -134 -71 -214 q60 -92 157 -166 q15 -6 16 -27 q-3 -17 -24 -20 q-7 0 -16 8 q-97 69 -160 164 q-63 -86 -191 -168 q-20 -7 -27 -7 q-19 4 -23 19 q0 20 15 27 q123 71 186 154 q7 8 13 18 q-12 20 -22 41 q-52 106 -80 309 q-18 -52 -42 -104 q-11 -11 -28 -11 q-19 5 -23 23 q0 9 8 24 q43 77 68 181 q23 77 37 233 q2 18 24 19 ZM644 571 q26 -247 70 -349 q12 -31 26 -58 q27 55 45 128 q26 94 35 295 l-172 0 q-2 -8 -4 -16 Z" /></font>
</defs>
</svg>
